<?xml version="1.0" encoding="utf-8" standalone="no"?>
<!DOCTYPE svg PUBLIC "-//W3C//DTD SVG 1.1//EN"
  "http://www.w3.org/Graphics/SVG/1.1/DTD/svg11.dtd">
<!-- Created with matplotlib (https://matplotlib.org/) -->
<svg height="230.4pt" version="1.1" viewBox="0 0 345.6 230.4" width="345.6pt" xmlns="http://www.w3.org/2000/svg" xmlns:xlink="http://www.w3.org/1999/xlink">
 <defs>
  <style type="text/css">
*{stroke-linecap:butt;stroke-linejoin:round;}
  </style>
 </defs>
 <g id="figure_1">
  <g id="patch_1">
   <path d="M 0 230.4 
L 345.6 230.4 
L 345.6 0 
L 0 0 
z
" style="fill:none;"/>
  </g>
  <g id="axes_1">
   <g id="patch_2">
    <path d="M 39.331178 196.685698 
L 342.59976 196.685698 
L 342.59976 3.00024 
L 39.331178 3.00024 
z
" style="fill:none;"/>
   </g>
   <g id="patch_3">
    <path clip-path="url(#p3b20f904b7)" d="M 46.912892 196.685698 
L 64.603559 196.685698 
L 64.603559 27.618482 
L 46.912892 27.618482 
z
" style="fill:#348abd;"/>
   </g>
   <g id="patch_4">
    <path clip-path="url(#p3b20f904b7)" d="M 97.457656 196.685698 
L 115.148323 196.685698 
L 115.148323 185.375001 
L 97.457656 185.375001 
z
" style="fill:#348abd;"/>
   </g>
   <g id="patch_5">
    <path clip-path="url(#p3b20f904b7)" d="M 148.00242 196.685698 
L 165.693087 196.685698 
L 165.693087 157.743112 
L 148.00242 157.743112 
z
" style="fill:#348abd;"/>
   </g>
   <g id="patch_6">
    <path clip-path="url(#p3b20f904b7)" d="M 198.547183 196.685698 
L 216.237851 196.685698 
L 216.237851 162.712309 
L 198.547183 162.712309 
z
" style="fill:#348abd;"/>
   </g>
   <g id="patch_7">
    <path clip-path="url(#p3b20f904b7)" d="M 249.091947 196.685698 
L 266.782614 196.685698 
L 266.782614 192.726485 
L 249.091947 192.726485 
z
" style="fill:#348abd;"/>
   </g>
   <g id="patch_8">
    <path clip-path="url(#p3b20f904b7)" d="M 299.636711 196.685698 
L 317.327378 196.685698 
L 317.327378 190.421168 
L 299.636711 190.421168 
z
" style="fill:#348abd;"/>
   </g>
   <g id="patch_9">
    <path clip-path="url(#p3b20f904b7)" d="M 64.603559 196.685698 
L 82.294227 196.685698 
L 82.294227 165.675019 
L 64.603559 165.675019 
z
" style="fill:#a60628;"/>
   </g>
   <g id="patch_10">
    <path clip-path="url(#p3b20f904b7)" d="M 115.148323 196.685698 
L 132.83899 196.685698 
L 132.83899 142.541484 
L 115.148323 142.541484 
z
" style="fill:#a60628;"/>
   </g>
   <g id="patch_11">
    <path clip-path="url(#p3b20f904b7)" d="M 165.693087 196.685698 
L 183.383754 196.685698 
L 183.383754 160.47358 
L 165.693087 160.47358 
z
" style="fill:#a60628;"/>
   </g>
   <g id="patch_12">
    <path clip-path="url(#p3b20f904b7)" d="M 216.237851 196.685698 
L 233.928518 196.685698 
L 233.928518 146.439795 
L 216.237851 146.439795 
z
" style="fill:#a60628;"/>
   </g>
   <g id="patch_13">
    <path clip-path="url(#p3b20f904b7)" d="M 266.782614 196.685698 
L 284.473282 196.685698 
L 284.473282 139.80136 
L 266.782614 139.80136 
z
" style="fill:#a60628;"/>
   </g>
   <g id="patch_14">
    <path clip-path="url(#p3b20f904b7)" d="M 317.327378 196.685698 
L 335.018045 196.685698 
L 335.018045 161.665318 
L 317.327378 161.665318 
z
" style="fill:#a60628;"/>
   </g>
   <g id="matplotlib.axis_1">
    <g id="xtick_1">
     <g id="text_1">
      <!-- 0 -->
      <defs>
       <path d="M 2.09375 35.296875 
Q 2.09375 54.40625 9.703125 63.59375 
Q 16.203125 71.40625 27.703125 71.40625 
Q 39.296875 71.40625 45.90625 63.59375 
Q 53.5 54.5 53.5 35.296875 
Q 53.5 -1.40625 27.703125 -1.40625 
Q 2.09375 -1.40625 2.09375 35.296875 
z
M 16.296875 35.296875 
Q 16.296875 25.09375 17.703125 19.796875 
Q 20.296875 10.296875 27.703125 10.296875 
Q 35.203125 10.296875 37.90625 19.796875 
Q 39.296875 25.09375 39.296875 35.296875 
Q 39.296875 59.703125 27.703125 59.703125 
Q 16.296875 59.703125 16.296875 35.296875 
z
" id="HelveticaNeueBold-48"/>
      </defs>
      <g transform="translate(61.545903 211.540385)scale(0.11 -0.11)">
       <use xlink:href="#HelveticaNeueBold-48"/>
      </g>
     </g>
    </g>
    <g id="xtick_2">
     <g id="text_2">
      <!-- 1 -->
      <defs>
       <path d="M 39.203125 70 
L 39.203125 0 
L 25 0 
L 25 45.40625 
L 7.40625 45.40625 
L 7.40625 56.09375 
Q 25.90625 55.703125 27.90625 70 
z
" id="HelveticaNeueBold-49"/>
      </defs>
      <g transform="translate(112.090667 211.540385)scale(0.11 -0.11)">
       <use xlink:href="#HelveticaNeueBold-49"/>
      </g>
     </g>
    </g>
    <g id="xtick_3">
     <g id="text_3">
      <!-- 2 -->
      <defs>
       <path d="M 17.296875 43.09375 
L 3.703125 43.09375 
Q 3.296875 55.5 10.046875 63.453125 
Q 16.796875 71.40625 29.09375 71.40625 
Q 39.09375 71.40625 45.90625 65.59375 
Q 53.09375 59.40625 53.09375 49.5 
Q 53.09375 40.203125 46.90625 33.59375 
Q 43.796875 30.296875 33.296875 23.5 
Q 24.09375 17.40625 20.40625 12.203125 
L 53.5 12.203125 
L 53.5 0 
L 2.09375 0 
Q 2.203125 10.90625 8.59375 18.703125 
Q 12.703125 23.5 24.203125 31.296875 
Q 32.40625 36.90625 33.90625 38.203125 
Q 38.90625 42.796875 38.90625 48.40625 
Q 38.90625 53.296875 35.953125 56.25 
Q 33 59.203125 28.40625 59.203125 
Q 22.59375 59.203125 19.703125 53.90625 
Q 17.296875 49.59375 17.296875 43.09375 
z
" id="HelveticaNeueBold-50"/>
      </defs>
      <g transform="translate(162.635431 211.540385)scale(0.11 -0.11)">
       <use xlink:href="#HelveticaNeueBold-50"/>
      </g>
     </g>
    </g>
    <g id="xtick_4">
     <g id="text_4">
      <!-- 3 -->
      <defs>
       <path d="M 22.796875 31.703125 
L 22.796875 41.703125 
Q 28.59375 41.203125 32.5 42.90625 
Q 37.703125 45 37.703125 50.40625 
Q 37.703125 54.703125 34.796875 57.203125 
Q 31.90625 59.703125 27.796875 59.703125 
Q 22.59375 59.703125 19.75 56.25 
Q 16.90625 52.796875 17 47.203125 
L 3.5 47.203125 
Q 3.90625 58 10.453125 64.703125 
Q 17 71.40625 27.703125 71.40625 
Q 36.796875 71.40625 43.703125 66.40625 
Q 51.203125 60.796875 51.203125 52 
Q 51.203125 46.796875 48.703125 43.09375 
Q 46.09375 39 41.40625 37.703125 
L 41.40625 37.5 
Q 47.09375 36.203125 50.4375 31.84375 
Q 53.796875 27.5 53.796875 21.59375 
Q 53.796875 11 45.90625 4.59375 
Q 38.59375 -1.40625 27.796875 -1.40625 
Q 15.796875 -1.40625 8.6875 5.390625 
Q 1.59375 12.203125 1.796875 24.09375 
L 15.296875 24.09375 
Q 15.5 18 18.5 14.40625 
Q 21.703125 10.296875 27.59375 10.296875 
Q 32.5 10.296875 35.75 13.34375 
Q 39 16.40625 39 21.296875 
Q 39 28.296875 33.5 30.5 
Q 30.40625 31.703125 22.796875 31.703125 
z
" id="HelveticaNeueBold-51"/>
      </defs>
      <g transform="translate(213.180194 211.540385)scale(0.11 -0.11)">
       <use xlink:href="#HelveticaNeueBold-51"/>
      </g>
     </g>
    </g>
    <g id="xtick_5">
     <g id="text_5">
      <!-- 4 -->
      <defs>
       <path d="M 31.203125 0 
L 31.203125 16.203125 
L 1.59375 16.203125 
L 1.59375 29.203125 
L 32 70 
L 44.703125 70 
L 44.703125 27.90625 
L 54 27.90625 
L 54 16.203125 
L 44.703125 16.203125 
L 44.703125 0 
z
M 31.203125 27.90625 
L 31.203125 52.203125 
L 30.90625 52.203125 
L 12.796875 27.90625 
z
" id="HelveticaNeueBold-52"/>
      </defs>
      <g transform="translate(263.724958 211.540385)scale(0.11 -0.11)">
       <use xlink:href="#HelveticaNeueBold-52"/>
      </g>
     </g>
    </g>
    <g id="xtick_6">
     <g id="text_6">
      <!-- 5 -->
      <defs>
       <path d="M 50 70 
L 50 58.296875 
L 21.09375 58.296875 
L 18.296875 42.40625 
L 18.5 42.203125 
Q 23.796875 47.59375 32.203125 47.59375 
Q 42.203125 47.59375 48.203125 40.59375 
Q 53.796875 34 53.796875 23.796875 
Q 53.796875 13.09375 46.140625 5.796875 
Q 38.5 -1.5 27.796875 -1.40625 
Q 16.90625 -1.296875 9.796875 4.203125 
Q 1.90625 10.296875 1.796875 20.796875 
L 16 20.796875 
Q 16.5 16.09375 19.703125 13.1875 
Q 22.90625 10.296875 27.5 10.296875 
Q 32.90625 10.296875 36.25 14.296875 
Q 39.59375 18.296875 39.59375 23.796875 
Q 39.59375 29.40625 36.34375 33.15625 
Q 33.09375 36.90625 27.5 36.90625 
Q 20.90625 36.90625 16.796875 31.296875 
L 4 31.296875 
L 10.90625 70 
z
" id="HelveticaNeueBold-53"/>
      </defs>
      <g transform="translate(314.269722 211.540385)scale(0.11 -0.11)">
       <use xlink:href="#HelveticaNeueBold-53"/>
      </g>
     </g>
    </g>
    <g id="text_7">
     <!-- Cluster Number -->
     <defs>
      <path d="M 69.703125 47.40625 
L 54.5 47.40625 
Q 53.796875 52.703125 49.296875 56.296875 
Q 44.796875 59.90625 38.90625 59.90625 
Q 29 59.90625 23.90625 52.296875 
Q 19.5 45.796875 19.5 35.40625 
Q 19.5 25.40625 23.90625 19 
Q 29.09375 11.5 38.90625 11.5 
Q 45.90625 11.5 50.203125 16 
Q 54.203125 20.203125 55.09375 27.5 
L 70.296875 27.5 
Q 69.09375 14.203125 60.546875 6.25 
Q 52 -1.703125 38.90625 -1.703125 
Q 22.796875 -1.703125 13.09375 9.09375 
Q 3.796875 19.40625 3.796875 35.40625 
Q 3.796875 51.796875 13.09375 62.203125 
Q 22.703125 73.09375 38.90625 73.09375 
Q 51.09375 73.09375 59.5 66.40625 
Q 68.296875 59.40625 69.703125 47.40625 
z
" id="HelveticaNeueBold-67"/>
      <path d="M 5.796875 0 
L 5.796875 71.40625 
L 20 71.40625 
L 20 0 
z
" id="HelveticaNeueBold-108"/>
      <path d="M 53.90625 51.703125 
L 53.90625 0 
L 40.40625 0 
L 40.40625 7.203125 
L 40.09375 7.203125 
Q 34.796875 -1.40625 24.296875 -1.40625 
Q 13.59375 -1.40625 9.203125 4.5 
Q 5.40625 9.40625 5.40625 19.90625 
L 5.40625 51.703125 
L 19.59375 51.703125 
L 19.59375 22.5 
Q 19.59375 9.796875 28.703125 9.796875 
Q 34.5 9.796875 37.09375 13.296875 
Q 39.703125 16.796875 39.703125 24.59375 
L 39.703125 51.703125 
z
" id="HelveticaNeueBold-117"/>
      <path d="M 2.90625 16.796875 
L 16.40625 16.796875 
Q 16.5 12.40625 19.796875 10.09375 
Q 22.703125 8.09375 27.296875 8.09375 
Q 31 8.09375 33.5 9.5 
Q 36.59375 11.296875 36.59375 14.703125 
Q 36.59375 17.703125 32.40625 19.5 
Q 29.40625 20.796875 20.5 22.703125 
Q 12.90625 24.296875 9.203125 26.90625 
Q 4.09375 30.296875 4.09375 36.5 
Q 4.09375 53.09375 26.59375 53.09375 
Q 48 53.09375 49.40625 36.59375 
L 35.90625 36.59375 
Q 35.40625 43.59375 26.203125 43.59375 
Q 18.296875 43.59375 18.296875 38.796875 
Q 18.296875 35.5 23.296875 33.703125 
Q 23.90625 33.5 34.40625 31.09375 
Q 42.09375 29.296875 45.703125 26.703125 
Q 50.796875 23.09375 50.796875 16.59375 
Q 50.796875 7.203125 43.40625 2.5 
Q 37.296875 -1.40625 27.203125 -1.40625 
Q 17.09375 -1.40625 10.796875 2.59375 
Q 3.296875 7.296875 2.90625 16.796875 
z
" id="HelveticaNeueBold-115"/>
      <path d="M 23.40625 67.203125 
L 23.40625 51.703125 
L 33.796875 51.703125 
L 33.796875 42.203125 
L 23.40625 42.203125 
L 23.40625 16.59375 
Q 23.40625 13 24.59375 11.796875 
Q 25.796875 10.59375 29.40625 10.59375 
Q 31.796875 10.59375 33.796875 11 
L 33.796875 -0.09375 
Q 30.796875 -0.59375 25.5 -0.59375 
Q 9.203125 -0.59375 9.203125 11.703125 
L 9.203125 42.203125 
L 0.59375 42.203125 
L 0.59375 51.703125 
L 9.203125 51.703125 
L 9.203125 67.203125 
z
" id="HelveticaNeueBold-116"/>
      <path d="M 54.40625 22.40625 
L 17.09375 22.40625 
Q 17.703125 9.296875 29.796875 9.296875 
Q 33.90625 9.296875 37.203125 11.5 
Q 40.296875 13.40625 41 16 
L 53.5 16 
Q 47.796875 -1.40625 29.296875 -1.40625 
Q 17.203125 -1.40625 10.046875 6.140625 
Q 2.90625 13.703125 2.90625 25.796875 
Q 2.90625 37.59375 10.25 45.34375 
Q 17.59375 53.09375 29.296875 53.09375 
Q 41.90625 53.09375 48.796875 43.703125 
Q 55.203125 35.09375 54.40625 22.40625 
z
M 17.09375 31.40625 
L 40.203125 31.40625 
Q 38.203125 42.40625 28.90625 42.40625 
Q 22.90625 42.40625 19.703125 38.40625 
Q 17.296875 35.40625 17.09375 31.40625 
z
" id="HelveticaNeueBold-101"/>
      <path d="M 5.40625 0 
L 5.40625 51.703125 
L 18.90625 51.703125 
L 18.90625 42.09375 
L 19.09375 42.09375 
Q 21 46.90625 25.703125 50 
Q 30.40625 53.09375 35.59375 53.09375 
Q 37.203125 53.09375 38.703125 52.59375 
L 38.703125 39.40625 
Q 36.5 39.90625 33.59375 39.90625 
Q 19.59375 39.90625 19.59375 23.296875 
L 19.59375 0 
z
" id="HelveticaNeueBold-114"/>
      <path id="HelveticaNeueBold-32"/>
      <path d="M 6.90625 0 
L 6.90625 71.40625 
L 22.5 71.40625 
L 52.296875 23.5 
L 52.5 23.5 
L 52.5 71.40625 
L 67.203125 71.40625 
L 67.203125 0 
L 51.5 0 
L 21.796875 47.796875 
L 21.59375 47.796875 
L 21.59375 0 
z
" id="HelveticaNeueBold-78"/>
      <path d="M 5.796875 0 
L 5.796875 51.703125 
L 19.203125 51.703125 
L 19.203125 44.703125 
L 19.40625 44.703125 
Q 25.296875 53.09375 35.203125 53.09375 
Q 46.40625 53.09375 50.296875 44.5 
Q 56 53.09375 65.90625 53.09375 
Q 84.796875 53.09375 84.796875 34.59375 
L 84.796875 0 
L 70.59375 0 
L 70.59375 29.296875 
Q 70.59375 35.59375 69.296875 38.203125 
Q 67.40625 41.90625 61.90625 41.90625 
Q 52.40625 41.90625 52.40625 28.796875 
L 52.40625 0 
L 38.203125 0 
L 38.203125 29 
Q 38.203125 35.5 37.296875 37.703125 
Q 35.5 41.90625 29.59375 41.90625 
Q 26.296875 41.90625 23.796875 39.703125 
Q 20 36.59375 20 30 
L 20 0 
z
" id="HelveticaNeueBold-109"/>
      <path d="M 5.40625 0 
L 5.40625 71.40625 
L 19.59375 71.40625 
L 19.59375 45.40625 
L 19.796875 45.40625 
Q 24.90625 53.09375 36.09375 53.09375 
Q 44.703125 53.09375 50.703125 46.59375 
Q 57.5 39.09375 57.5 25.90625 
Q 57.5 12.59375 50.703125 5.09375 
Q 44.703125 -1.40625 36.09375 -1.40625 
Q 23.5 -1.40625 19.09375 6.59375 
L 18.90625 6.59375 
L 18.90625 0 
z
M 43.296875 25.796875 
Q 43.296875 32.90625 40.40625 37.40625 
Q 37.203125 42.40625 31.203125 42.40625 
Q 25.203125 42.40625 22 37.40625 
Q 19.09375 32.90625 19.09375 25.796875 
Q 19.09375 18.796875 22 14.296875 
Q 25.296875 9.296875 31.203125 9.296875 
Q 37.09375 9.296875 40.40625 14.296875 
Q 43.296875 18.796875 43.296875 25.796875 
z
" id="HelveticaNeueBold-98"/>
     </defs>
     <g transform="translate(149.517812 225.397416)scale(0.11 -0.11)">
      <use xlink:href="#HelveticaNeueBold-67"/>
      <use x="74.099991" xlink:href="#HelveticaNeueBold-108"/>
      <use x="99.899979" xlink:href="#HelveticaNeueBold-117"/>
      <use x="159.199966" xlink:href="#HelveticaNeueBold-115"/>
      <use x="212.899963" xlink:href="#HelveticaNeueBold-116"/>
      <use x="248.09996" xlink:href="#HelveticaNeueBold-101"/>
      <use x="305.499954" xlink:href="#HelveticaNeueBold-114"/>
      <use x="344.399948" xlink:href="#HelveticaNeueBold-32"/>
      <use x="372.199936" xlink:href="#HelveticaNeueBold-78"/>
      <use x="446.299927" xlink:href="#HelveticaNeueBold-117"/>
      <use x="505.599915" xlink:href="#HelveticaNeueBold-109"/>
      <use x="596.199905" xlink:href="#HelveticaNeueBold-98"/>
      <use x="657.299896" xlink:href="#HelveticaNeueBold-101"/>
      <use x="714.69989" xlink:href="#HelveticaNeueBold-114"/>
     </g>
    </g>
   </g>
   <g id="matplotlib.axis_2">
    <g id="ytick_1">
     <g id="text_8">
      <!-- 0.0 -->
      <defs>
       <path d="M 6 0 
L 6 15.40625 
L 21.703125 15.40625 
L 21.703125 0 
z
" id="HelveticaNeueBold-46"/>
      </defs>
      <g transform="translate(17.042896 200.613041)scale(0.11 -0.11)">
       <use xlink:href="#HelveticaNeueBold-48"/>
       <use x="55.599991" xlink:href="#HelveticaNeueBold-46"/>
       <use x="83.399979" xlink:href="#HelveticaNeueBold-48"/>
      </g>
     </g>
    </g>
    <g id="ytick_2">
     <g id="text_9">
      <!-- 0.1 -->
      <g transform="translate(17.042896 174.261278)scale(0.11 -0.11)">
       <use xlink:href="#HelveticaNeueBold-48"/>
       <use x="55.599991" xlink:href="#HelveticaNeueBold-46"/>
       <use x="83.399979" xlink:href="#HelveticaNeueBold-49"/>
      </g>
     </g>
    </g>
    <g id="ytick_3">
     <g id="text_10">
      <!-- 0.2 -->
      <g transform="translate(17.042896 147.909515)scale(0.11 -0.11)">
       <use xlink:href="#HelveticaNeueBold-48"/>
       <use x="55.599991" xlink:href="#HelveticaNeueBold-46"/>
       <use x="83.399979" xlink:href="#HelveticaNeueBold-50"/>
      </g>
     </g>
    </g>
    <g id="ytick_4">
     <g id="text_11">
      <!-- 0.3 -->
      <g transform="translate(17.042896 121.557752)scale(0.11 -0.11)">
       <use xlink:href="#HelveticaNeueBold-48"/>
       <use x="55.599991" xlink:href="#HelveticaNeueBold-46"/>
       <use x="83.399979" xlink:href="#HelveticaNeueBold-51"/>
      </g>
     </g>
    </g>
    <g id="ytick_5">
     <g id="text_12">
      <!-- 0.4 -->
      <g transform="translate(17.042896 95.20599)scale(0.11 -0.11)">
       <use xlink:href="#HelveticaNeueBold-48"/>
       <use x="55.599991" xlink:href="#HelveticaNeueBold-46"/>
       <use x="83.399979" xlink:href="#HelveticaNeueBold-52"/>
      </g>
     </g>
    </g>
    <g id="ytick_6">
     <g id="text_13">
      <!-- 0.5 -->
      <g transform="translate(17.042896 68.854227)scale(0.11 -0.11)">
       <use xlink:href="#HelveticaNeueBold-48"/>
       <use x="55.599991" xlink:href="#HelveticaNeueBold-46"/>
       <use x="83.399979" xlink:href="#HelveticaNeueBold-53"/>
      </g>
     </g>
    </g>
    <g id="ytick_7">
     <g id="text_14">
      <!-- 0.6 -->
      <defs>
       <path d="M 52.296875 52 
L 38.796875 52 
Q 38.09375 55.703125 35.546875 58.203125 
Q 33 60.703125 29.40625 60.703125 
Q 22.59375 60.703125 19 53 
Q 16.40625 47.40625 16 39.40625 
L 16.203125 39.203125 
Q 21.703125 47 32 47 
Q 41.703125 47 48.09375 39.796875 
Q 53.5 33.703125 53.5 24.203125 
Q 53.5 13.296875 46.640625 5.9375 
Q 39.796875 -1.40625 29 -1.40625 
Q 14.40625 -1.40625 7.59375 10.09375 
Q 2.09375 19.296875 2.09375 34.796875 
Q 2.09375 49.5 8.40625 59.5 
Q 15.796875 71.40625 29.59375 71.40625 
Q 38.796875 71.40625 44.9375 66.25 
Q 51.09375 61.09375 52.296875 52 
z
M 28.59375 36.296875 
Q 23.203125 36.296875 20.25 32.546875 
Q 17.296875 28.796875 17.296875 23.296875 
Q 17.296875 18.09375 20.296875 14.40625 
Q 23.5 10.296875 28.59375 10.296875 
Q 33.40625 10.296875 36.5 14.296875 
Q 39.296875 18 39.296875 23.09375 
Q 39.296875 28.5 36.703125 32.203125 
Q 33.796875 36.296875 28.59375 36.296875 
z
" id="HelveticaNeueBold-54"/>
      </defs>
      <g transform="translate(17.042896 42.502464)scale(0.11 -0.11)">
       <use xlink:href="#HelveticaNeueBold-48"/>
       <use x="55.599991" xlink:href="#HelveticaNeueBold-46"/>
       <use x="83.399979" xlink:href="#HelveticaNeueBold-54"/>
      </g>
     </g>
    </g>
    <g id="ytick_8">
     <g id="text_15">
      <!-- 0.7 -->
      <defs>
       <path d="M 51.703125 70 
L 51.703125 57.796875 
Q 41.296875 48.703125 34.796875 31.09375 
Q 29 15.203125 28.796875 0 
L 13.59375 0 
Q 16 31.5 37.09375 56.796875 
L 3.90625 56.796875 
L 3.90625 70 
z
" id="HelveticaNeueBold-55"/>
      </defs>
      <g transform="translate(17.042896 16.150701)scale(0.11 -0.11)">
       <use xlink:href="#HelveticaNeueBold-48"/>
       <use x="55.599991" xlink:href="#HelveticaNeueBold-46"/>
       <use x="83.399979" xlink:href="#HelveticaNeueBold-55"/>
      </g>
     </g>
    </g>
    <g id="text_16">
     <!-- Proportion of Data Found in Cluster -->
     <defs>
      <path d="M 6.90625 0 
L 6.90625 71.40625 
L 39.09375 71.40625 
Q 51.59375 71.40625 58.09375 64.296875 
Q 63.796875 58.203125 63.796875 48.5 
Q 63.796875 38.796875 58.09375 32.703125 
Q 51.59375 25.59375 39.09375 25.59375 
L 22.59375 25.59375 
L 22.59375 0 
z
M 22.59375 59.203125 
L 22.59375 37.796875 
L 34.796875 37.796875 
Q 41.203125 37.796875 44.40625 39.703125 
Q 48.59375 42.296875 48.59375 48.5 
Q 48.59375 54.703125 44.40625 57.296875 
Q 41.203125 59.203125 34.796875 59.203125 
z
" id="HelveticaNeueBold-80"/>
      <path d="M 3.796875 25.796875 
Q 3.796875 38.203125 11.09375 45.640625 
Q 18.40625 53.09375 30.5 53.09375 
Q 42.703125 53.09375 50 45.640625 
Q 57.296875 38.203125 57.296875 25.796875 
Q 57.296875 13.5 50 6.046875 
Q 42.703125 -1.40625 30.5 -1.40625 
Q 18.40625 -1.40625 11.09375 6.046875 
Q 3.796875 13.5 3.796875 25.796875 
z
M 18 25.796875 
Q 18 18.703125 20.703125 14.5 
Q 23.90625 9.296875 30.5 9.296875 
Q 43.09375 9.296875 43.09375 25.796875 
Q 43.09375 42.40625 30.5 42.40625 
Q 18 42.40625 18 25.796875 
z
" id="HelveticaNeueBold-111"/>
      <path d="M 5.40625 -18.203125 
L 5.40625 51.703125 
L 18.90625 51.703125 
L 18.90625 45.09375 
L 19.09375 45.09375 
Q 24 53.09375 34.5 53.09375 
Q 46 53.09375 52.296875 44.703125 
Q 58 37.203125 58 25.296875 
Q 58 14.203125 52.296875 6.796875 
Q 46.09375 -1.40625 35.296875 -1.40625 
Q 25 -1.40625 19.796875 6.40625 
L 19.59375 6.40625 
L 19.59375 -18.203125 
z
M 31.5 9.296875 
Q 43.796875 9.296875 43.796875 25.703125 
Q 43.796875 32.703125 41 37.09375 
Q 37.703125 42.40625 31.40625 42.40625 
Q 24.90625 42.40625 21.796875 37.203125 
Q 19.09375 32.796875 19.09375 25.703125 
Q 19.09375 18.703125 21.90625 14.40625 
Q 25.09375 9.296875 31.5 9.296875 
z
" id="HelveticaNeueBold-112"/>
      <path d="M 5.796875 0 
L 5.796875 51.703125 
L 20 51.703125 
L 20 0 
z
M 20 71.40625 
L 20 59.703125 
L 5.796875 59.703125 
L 5.796875 71.40625 
z
" id="HelveticaNeueBold-105"/>
      <path d="M 5.40625 0 
L 5.40625 51.703125 
L 18.90625 51.703125 
L 18.90625 44.5 
L 19.203125 44.5 
Q 24.5 53.09375 35 53.09375 
Q 45.703125 53.09375 50.09375 47.296875 
Q 53.90625 42.296875 53.90625 31.796875 
L 53.90625 0 
L 39.703125 0 
L 39.703125 29.203125 
Q 39.703125 41.90625 30.59375 41.90625 
Q 24.796875 41.90625 22.1875 38.40625 
Q 19.59375 34.90625 19.59375 27.09375 
L 19.59375 0 
z
" id="HelveticaNeueBold-110"/>
      <path d="M 8.5 0 
L 8.5 42.203125 
L 0 42.203125 
L 0 51.703125 
L 8.5 51.703125 
L 8.5 55.703125 
Q 8.5 62.796875 12.953125 67.09375 
Q 17.40625 71.40625 25.796875 71.40625 
Q 27.203125 71.40625 29.59375 71.203125 
Q 32.59375 71 33.296875 71 
L 33.296875 60.40625 
Q 30.796875 60.703125 28.09375 60.703125 
Q 22.703125 60.703125 22.703125 54.796875 
L 22.703125 51.703125 
L 32.5 51.703125 
L 32.5 42.203125 
L 22.703125 42.203125 
L 22.703125 0 
z
" id="HelveticaNeueBold-102"/>
      <path d="M 6.90625 0 
L 6.90625 71.40625 
L 37.703125 71.40625 
Q 52.203125 71.40625 60.796875 62.59375 
Q 70.09375 53.296875 70.09375 36.09375 
Q 70.09375 19.90625 62.09375 10.296875 
Q 53.5 0 37.703125 0 
z
M 22.59375 58.203125 
L 22.59375 13.203125 
L 36.59375 13.203125 
Q 44.203125 13.203125 48.90625 18 
Q 54.40625 23.59375 54.40625 34.59375 
Q 54.40625 46.09375 50 51.796875 
Q 45 58.203125 33.796875 58.203125 
z
" id="HelveticaNeueBold-68"/>
      <path d="M 37.59375 20 
L 37.59375 25.296875 
Q 35.90625 23.796875 30.203125 23 
Q 23.703125 22 21.59375 21.09375 
Q 17.40625 19.203125 17.40625 14.703125 
Q 17.40625 8.09375 26.09375 8.09375 
Q 37.59375 8.09375 37.59375 20 
z
M 19 35.796875 
L 4.796875 35.796875 
Q 5.40625 45 12.90625 49.40625 
Q 19.09375 53.09375 29.09375 53.09375 
Q 51.796875 53.09375 51.796875 38.40625 
L 51.796875 11.5 
Q 51.796875 2.90625 53.59375 0 
L 39.203125 0 
Q 38.296875 2.796875 38.203125 5 
Q 32.09375 -1.40625 20.796875 -1.40625 
Q 13 -1.40625 8.296875 2.40625 
Q 3.203125 6.5 3.203125 14.09375 
Q 3.203125 22 8.703125 25.90625 
Q 12.703125 28.59375 20.796875 29.796875 
Q 32.296875 31.40625 32.5 31.5 
Q 37.59375 32.796875 37.59375 36.59375 
Q 37.59375 40.796875 34.796875 42.40625 
Q 32.796875 43.59375 28.40625 43.59375 
Q 19.703125 43.59375 19 35.796875 
z
" id="HelveticaNeueBold-97"/>
      <path d="M 6.90625 0 
L 6.90625 71.40625 
L 57.09375 71.40625 
L 57.09375 58.203125 
L 22.59375 58.203125 
L 22.59375 41.703125 
L 52.5 41.703125 
L 52.5 29.5 
L 22.59375 29.5 
L 22.59375 0 
z
" id="HelveticaNeueBold-70"/>
      <path d="M 42.296875 0 
L 42.296875 6.59375 
L 42.09375 6.59375 
Q 37.40625 -1.40625 26.40625 -1.40625 
Q 15.296875 -1.40625 9 7.09375 
Q 3.203125 14.796875 3.203125 26.296875 
Q 3.203125 37.5 9 44.90625 
Q 15.296875 53.09375 26.09375 53.09375 
Q 36.5 53.09375 41.5 45.40625 
L 41.59375 45.40625 
L 41.59375 71.40625 
L 55.796875 71.40625 
L 55.796875 0 
z
M 42.09375 26 
Q 42.09375 33.09375 39.5 37.40625 
Q 36.296875 42.40625 29.90625 42.40625 
Q 23.40625 42.40625 20.203125 37.296875 
Q 17.40625 33 17.40625 25.90625 
Q 17.40625 19.09375 20.40625 14.59375 
Q 23.703125 9.296875 29.90625 9.296875 
Q 42.09375 9.296875 42.09375 26 
z
" id="HelveticaNeueBold-100"/>
     </defs>
     <g transform="translate(11.040552 193.136719)rotate(-90)scale(0.11 -0.11)">
      <use xlink:href="#HelveticaNeueBold-80"/>
      <use x="66.699997" xlink:href="#HelveticaNeueBold-114"/>
      <use x="105.599991" xlink:href="#HelveticaNeueBold-111"/>
      <use x="166.699982" xlink:href="#HelveticaNeueBold-112"/>
      <use x="227.799973" xlink:href="#HelveticaNeueBold-111"/>
      <use x="288.899963" xlink:href="#HelveticaNeueBold-114"/>
      <use x="327.799957" xlink:href="#HelveticaNeueBold-116"/>
      <use x="362.999954" xlink:href="#HelveticaNeueBold-105"/>
      <use x="388.799942" xlink:href="#HelveticaNeueBold-111"/>
      <use x="449.899933" xlink:href="#HelveticaNeueBold-110"/>
      <use x="509.199921" xlink:href="#HelveticaNeueBold-32"/>
      <use x="536.999908" xlink:href="#HelveticaNeueBold-111"/>
      <use x="598.099899" xlink:href="#HelveticaNeueBold-102"/>
      <use x="631.399887" xlink:href="#HelveticaNeueBold-32"/>
      <use x="659.199875" xlink:href="#HelveticaNeueBold-68"/>
      <use x="733.299866" xlink:href="#HelveticaNeueBold-97"/>
      <use x="790.69986" xlink:href="#HelveticaNeueBold-116"/>
      <use x="825.899857" xlink:href="#HelveticaNeueBold-97"/>
      <use x="883.29985" xlink:href="#HelveticaNeueBold-32"/>
      <use x="911.099838" xlink:href="#HelveticaNeueBold-70"/>
      <use x="970.399826" xlink:href="#HelveticaNeueBold-111"/>
      <use x="1031.499817" xlink:href="#HelveticaNeueBold-117"/>
      <use x="1090.799805" xlink:href="#HelveticaNeueBold-110"/>
      <use x="1150.099792" xlink:href="#HelveticaNeueBold-100"/>
      <use x="1211.199783" xlink:href="#HelveticaNeueBold-32"/>
      <use x="1238.999771" xlink:href="#HelveticaNeueBold-105"/>
      <use x="1264.799759" xlink:href="#HelveticaNeueBold-110"/>
      <use x="1324.099747" xlink:href="#HelveticaNeueBold-32"/>
      <use x="1351.899734" xlink:href="#HelveticaNeueBold-67"/>
      <use x="1425.999725" xlink:href="#HelveticaNeueBold-108"/>
      <use x="1451.799713" xlink:href="#HelveticaNeueBold-117"/>
      <use x="1511.099701" xlink:href="#HelveticaNeueBold-115"/>
      <use x="1564.799698" xlink:href="#HelveticaNeueBold-116"/>
      <use x="1599.999695" xlink:href="#HelveticaNeueBold-101"/>
      <use x="1657.399689" xlink:href="#HelveticaNeueBold-114"/>
     </g>
    </g>
   </g>
   <g id="line2d_1">
    <path clip-path="url(#p3b20f904b7)" d="M 14.058796 196.685698 
L 346.6 196.685698 
" style="fill:none;stroke:#000000;stroke-dasharray:1.85,0.8;stroke-dashoffset:0;stroke-opacity:0.3;stroke-width:0.5;"/>
   </g>
   <g id="line2d_2">
    <path clip-path="url(#p3b20f904b7)" d="M 14.058796 170.333935 
L 346.6 170.333935 
" style="fill:none;stroke:#000000;stroke-dasharray:1.85,0.8;stroke-dashoffset:0;stroke-opacity:0.3;stroke-width:0.5;"/>
   </g>
   <g id="line2d_3">
    <path clip-path="url(#p3b20f904b7)" d="M 14.058796 143.982172 
L 346.6 143.982172 
" style="fill:none;stroke:#000000;stroke-dasharray:1.85,0.8;stroke-dashoffset:0;stroke-opacity:0.3;stroke-width:0.5;"/>
   </g>
   <g id="line2d_4">
    <path clip-path="url(#p3b20f904b7)" d="M 14.058796 117.630409 
L 346.6 117.630409 
" style="fill:none;stroke:#000000;stroke-dasharray:1.85,0.8;stroke-dashoffset:0;stroke-opacity:0.3;stroke-width:0.5;"/>
   </g>
   <g id="line2d_5">
    <path clip-path="url(#p3b20f904b7)" d="M 14.058796 91.278646 
L 346.6 91.278646 
" style="fill:none;stroke:#000000;stroke-dasharray:1.85,0.8;stroke-dashoffset:0;stroke-opacity:0.3;stroke-width:0.5;"/>
   </g>
   <g id="line2d_6">
    <path clip-path="url(#p3b20f904b7)" d="M 14.058796 64.926883 
L 346.6 64.926883 
" style="fill:none;stroke:#000000;stroke-dasharray:1.85,0.8;stroke-dashoffset:0;stroke-opacity:0.3;stroke-width:0.5;"/>
   </g>
   <g id="line2d_7">
    <path clip-path="url(#p3b20f904b7)" d="M 14.058796 38.57512 
L 346.6 38.57512 
" style="fill:none;stroke:#000000;stroke-dasharray:1.85,0.8;stroke-dashoffset:0;stroke-opacity:0.3;stroke-width:0.5;"/>
   </g>
   <g id="line2d_8">
    <path clip-path="url(#p3b20f904b7)" d="M 14.058796 12.223357 
L 346.6 12.223357 
" style="fill:none;stroke:#000000;stroke-dasharray:1.85,0.8;stroke-dashoffset:0;stroke-opacity:0.3;stroke-width:0.5;"/>
   </g>
   <g id="line2d_9">
    <path clip-path="url(#p3b20f904b7)" d="M 14.058796 196.685698 
L 14.058796 12.223357 
" style="fill:none;stroke:#000000;stroke-dasharray:1.85,0.8;stroke-dashoffset:0;stroke-opacity:0.3;stroke-width:0.5;"/>
   </g>
   <g id="line2d_10">
    <path clip-path="url(#p3b20f904b7)" d="M 64.603559 196.685698 
L 64.603559 12.223357 
" style="fill:none;stroke:#000000;stroke-dasharray:1.85,0.8;stroke-dashoffset:0;stroke-opacity:0.3;stroke-width:0.5;"/>
   </g>
   <g id="line2d_11">
    <path clip-path="url(#p3b20f904b7)" d="M 115.148323 196.685698 
L 115.148323 12.223357 
" style="fill:none;stroke:#000000;stroke-dasharray:1.85,0.8;stroke-dashoffset:0;stroke-opacity:0.3;stroke-width:0.5;"/>
   </g>
   <g id="line2d_12">
    <path clip-path="url(#p3b20f904b7)" d="M 165.693087 196.685698 
L 165.693087 12.223357 
" style="fill:none;stroke:#000000;stroke-dasharray:1.85,0.8;stroke-dashoffset:0;stroke-opacity:0.3;stroke-width:0.5;"/>
   </g>
   <g id="line2d_13">
    <path clip-path="url(#p3b20f904b7)" d="M 216.237851 196.685698 
L 216.237851 12.223357 
" style="fill:none;stroke:#000000;stroke-dasharray:1.85,0.8;stroke-dashoffset:0;stroke-opacity:0.3;stroke-width:0.5;"/>
   </g>
   <g id="line2d_14">
    <path clip-path="url(#p3b20f904b7)" d="M 266.782614 196.685698 
L 266.782614 12.223357 
" style="fill:none;stroke:#000000;stroke-dasharray:1.85,0.8;stroke-dashoffset:0;stroke-opacity:0.3;stroke-width:0.5;"/>
   </g>
   <g id="line2d_15">
    <path clip-path="url(#p3b20f904b7)" d="M 317.327378 196.685698 
L 317.327378 12.223357 
" style="fill:none;stroke:#000000;stroke-dasharray:1.85,0.8;stroke-dashoffset:0;stroke-opacity:0.3;stroke-width:0.5;"/>
   </g>
   <g id="line2d_16">
    <path clip-path="url(#p3b20f904b7)" style="fill:none;stroke:#000000;stroke-dasharray:1.85,0.8;stroke-dashoffset:0;stroke-opacity:0.3;stroke-width:0.5;"/>
   </g>
   <g id="legend_1">
    <g id="patch_15">
     <path d="M 246.110854 20.754928 
L 268.110854 20.754928 
L 268.110854 13.054928 
L 246.110854 13.054928 
z
" style="fill:#348abd;"/>
    </g>
    <g id="text_17">
     <!-- customer -->
     <defs>
      <path d="M 54.5 33.5 
L 40.59375 33.5 
Q 39.203125 42.40625 30.09375 42.40625 
Q 23.90625 42.40625 20.59375 36.90625 
Q 18 32.296875 18 25.59375 
Q 18 19.09375 20.59375 14.703125 
Q 23.703125 9.296875 29.796875 9.296875 
Q 39.59375 9.296875 41.09375 19.796875 
L 54.796875 19.796875 
Q 53.5 9.59375 46.84375 4.09375 
Q 40.203125 -1.40625 29.90625 -1.40625 
Q 18.296875 -1.40625 11.046875 6 
Q 3.796875 13.40625 3.796875 25.09375 
Q 3.796875 37.5 10.703125 45.09375 
Q 17.90625 53.09375 30.203125 53.09375 
Q 40 53.09375 46.59375 48.296875 
Q 53.90625 42.90625 54.5 33.5 
z
" id="HelveticaNeueBold-99"/>
     </defs>
     <g transform="translate(276.910854 20.754928)scale(0.11 -0.11)">
      <use xlink:href="#HelveticaNeueBold-99"/>
      <use x="57.399994" xlink:href="#HelveticaNeueBold-117"/>
      <use x="116.699982" xlink:href="#HelveticaNeueBold-115"/>
      <use x="170.399979" xlink:href="#HelveticaNeueBold-116"/>
      <use x="205.599976" xlink:href="#HelveticaNeueBold-111"/>
      <use x="266.699966" xlink:href="#HelveticaNeueBold-109"/>
      <use x="357.299957" xlink:href="#HelveticaNeueBold-101"/>
      <use x="414.699951" xlink:href="#HelveticaNeueBold-114"/>
     </g>
    </g>
    <g id="patch_16">
     <path d="M 246.110854 36.111959 
L 268.110854 36.111959 
L 268.110854 28.411959 
L 246.110854 28.411959 
z
" style="fill:#a60628;"/>
    </g>
    <g id="text_18">
     <!-- population -->
     <g transform="translate(276.910854 36.111959)scale(0.11 -0.11)">
      <use xlink:href="#HelveticaNeueBold-112"/>
      <use x="61.099991" xlink:href="#HelveticaNeueBold-111"/>
      <use x="122.199982" xlink:href="#HelveticaNeueBold-112"/>
      <use x="183.299973" xlink:href="#HelveticaNeueBold-117"/>
      <use x="242.59996" xlink:href="#HelveticaNeueBold-108"/>
      <use x="268.399948" xlink:href="#HelveticaNeueBold-97"/>
      <use x="325.799942" xlink:href="#HelveticaNeueBold-116"/>
      <use x="360.999939" xlink:href="#HelveticaNeueBold-105"/>
      <use x="386.799927" xlink:href="#HelveticaNeueBold-111"/>
      <use x="447.899918" xlink:href="#HelveticaNeueBold-110"/>
     </g>
    </g>
   </g>
  </g>
 </g>
 <defs>
  <clipPath id="p3b20f904b7">
   <rect height="193.685457" width="303.268582" x="39.331178" y="3.00024"/>
  </clipPath>
 </defs>
</svg>
