<?xml version="1.0" encoding="utf-8" standalone="no"?>
<!DOCTYPE svg PUBLIC "-//W3C//DTD SVG 1.1//EN"
  "http://www.w3.org/Graphics/SVG/1.1/DTD/svg11.dtd">
<!-- Created with matplotlib (https://matplotlib.org/) -->
<svg height="230.4pt" version="1.1" viewBox="0 0 345.6 230.4" width="345.6pt" xmlns="http://www.w3.org/2000/svg" xmlns:xlink="http://www.w3.org/1999/xlink">
 <defs>
  <style type="text/css">
*{stroke-linecap:butt;stroke-linejoin:round;}
  </style>
 </defs>
 <g id="figure_1">
  <g id="patch_1">
   <path d="M 0 230.4 
L 345.6 230.4 
L 345.6 0 
L 0 0 
z
" style="fill:none;"/>
  </g>
  <g id="axes_1">
   <g id="patch_2">
    <path d="M 31.403834 210.542729 
L 342.59976 210.542729 
L 342.59976 28.282896 
L 31.403834 28.282896 
z
" style="fill:none;"/>
   </g>
   <g id="patch_3">
    <path clip-path="url(#pfb3161c0b2)" d="M 45.549103 210.542729 
L 50.490682 210.542729 
L 50.490682 200.40278 
L 45.549103 200.40278 
z
" style="fill:#1f77b4;opacity:0.5;"/>
   </g>
   <g id="patch_4">
    <path clip-path="url(#pfb3161c0b2)" d="M 51.726077 210.542729 
L 56.667655 210.542729 
L 56.667655 180.76444 
L 51.726077 180.76444 
z
" style="fill:#1f77b4;opacity:0.5;"/>
   </g>
   <g id="patch_5">
    <path clip-path="url(#pfb3161c0b2)" d="M 57.90305 210.542729 
L 62.844629 210.542729 
L 62.844629 199.355735 
L 57.90305 199.355735 
z
" style="fill:#1f77b4;opacity:0.5;"/>
   </g>
   <g id="patch_6">
    <path clip-path="url(#pfb3161c0b2)" d="M 64.080024 210.542729 
L 69.021603 210.542729 
L 69.021603 198.694736 
L 64.080024 198.694736 
z
" style="fill:#1f77b4;opacity:0.5;"/>
   </g>
   <g id="patch_7">
    <path clip-path="url(#pfb3161c0b2)" d="M 70.256997 210.542729 
L 75.198576 210.542729 
L 75.198576 177.645524 
L 70.256997 177.645524 
z
" style="fill:#1f77b4;opacity:0.5;"/>
   </g>
   <g id="patch_8">
    <path clip-path="url(#pfb3161c0b2)" d="M 76.433971 210.542729 
L 81.37555 210.542729 
L 81.37555 196.631197 
L 76.433971 196.631197 
z
" style="fill:#1f77b4;opacity:0.5;"/>
   </g>
   <g id="patch_9">
    <path clip-path="url(#pfb3161c0b2)" d="M 82.610944 210.542729 
L 87.552523 210.542729 
L 87.552523 174.121121 
L 82.610944 174.121121 
z
" style="fill:#1f77b4;opacity:0.5;"/>
   </g>
   <g id="patch_10">
    <path clip-path="url(#pfb3161c0b2)" d="M 88.787918 210.542729 
L 93.729497 210.542729 
L 93.729497 168.044373 
L 88.787918 168.044373 
z
" style="fill:#1f77b4;opacity:0.5;"/>
   </g>
   <g id="patch_11">
    <path clip-path="url(#pfb3161c0b2)" d="M 94.964891 210.542729 
L 99.90647 210.542729 
L 99.90647 157.240647 
L 94.964891 157.240647 
z
" style="fill:#1f77b4;opacity:0.5;"/>
   </g>
   <g id="patch_12">
    <path clip-path="url(#pfb3161c0b2)" d="M 101.141865 210.542729 
L 106.083444 210.542729 
L 106.083444 114.120175 
L 101.141865 114.120175 
z
" style="fill:#1f77b4;opacity:0.5;"/>
   </g>
   <g id="patch_13">
    <path clip-path="url(#pfb3161c0b2)" d="M 107.318838 210.542729 
L 112.260417 210.542729 
L 112.260417 182.511366 
L 107.318838 182.511366 
z
" style="fill:#1f77b4;opacity:0.5;"/>
   </g>
   <g id="patch_14">
    <path clip-path="url(#pfb3161c0b2)" d="M 113.495812 210.542729 
L 118.437391 210.542729 
L 118.437391 191.123796 
L 113.495812 191.123796 
z
" style="fill:#1f77b4;opacity:0.5;"/>
   </g>
   <g id="patch_15">
    <path clip-path="url(#pfb3161c0b2)" d="M 119.672785 210.542729 
L 124.614364 210.542729 
L 124.614364 115.061682 
L 119.672785 115.061682 
z
" style="fill:#1f77b4;opacity:0.5;"/>
   </g>
   <g id="patch_16">
    <path clip-path="url(#pfb3161c0b2)" d="M 125.849759 210.542729 
L 130.791338 210.542729 
L 130.791338 116.192046 
L 125.849759 116.192046 
z
" style="fill:#1f77b4;opacity:0.5;"/>
   </g>
   <g id="patch_17">
    <path clip-path="url(#pfb3161c0b2)" d="M 132.026732 210.542729 
L 136.968311 210.542729 
L 136.968311 119.844205 
L 132.026732 119.844205 
z
" style="fill:#1f77b4;opacity:0.5;"/>
   </g>
   <g id="patch_18">
    <path clip-path="url(#pfb3161c0b2)" d="M 138.203706 210.542729 
L 143.145285 210.542729 
L 143.145285 185.719156 
L 138.203706 185.719156 
z
" style="fill:#1f77b4;opacity:0.5;"/>
   </g>
   <g id="patch_19">
    <path clip-path="url(#pfb3161c0b2)" d="M 144.38068 210.542729 
L 149.322258 210.542729 
L 149.322258 79.2733 
L 144.38068 79.2733 
z
" style="fill:#1f77b4;opacity:0.5;"/>
   </g>
   <g id="patch_20">
    <path clip-path="url(#pfb3161c0b2)" d="M 150.557653 210.542729 
L 155.499232 210.542729 
L 155.499232 186.955058 
L 150.557653 186.955058 
z
" style="fill:#1f77b4;opacity:0.5;"/>
   </g>
   <g id="patch_21">
    <path clip-path="url(#pfb3161c0b2)" d="M 156.734627 210.542729 
L 161.676205 210.542729 
L 161.676205 195.914651 
L 156.734627 195.914651 
z
" style="fill:#1f77b4;opacity:0.5;"/>
   </g>
   <g id="patch_22">
    <path clip-path="url(#pfb3161c0b2)" d="M 162.9116 210.542729 
L 167.853179 210.542729 
L 167.853179 177.553873 
L 162.9116 177.553873 
z
" style="fill:#1f77b4;opacity:0.5;"/>
   </g>
   <g id="patch_23">
    <path clip-path="url(#pfb3161c0b2)" d="M 169.088574 210.542729 
L 174.030152 210.542729 
L 174.030152 182.097548 
L 169.088574 182.097548 
z
" style="fill:#1f77b4;opacity:0.5;"/>
   </g>
   <g id="patch_24">
    <path clip-path="url(#pfb3161c0b2)" d="M 175.265547 210.542729 
L 180.207126 210.542729 
L 180.207126 183.380664 
L 175.265547 183.380664 
z
" style="fill:#1f77b4;opacity:0.5;"/>
   </g>
   <g id="patch_25">
    <path clip-path="url(#pfb3161c0b2)" d="M 181.442521 210.542729 
L 186.3841 210.542729 
L 186.3841 169.73853 
L 181.442521 169.73853 
z
" style="fill:#1f77b4;opacity:0.5;"/>
   </g>
   <g id="patch_26">
    <path clip-path="url(#pfb3161c0b2)" d="M 187.619494 210.542729 
L 192.561073 210.542729 
L 192.561073 200.755498 
L 187.619494 200.755498 
z
" style="fill:#1f77b4;opacity:0.5;"/>
   </g>
   <g id="patch_27">
    <path clip-path="url(#pfb3161c0b2)" d="M 193.796468 210.542729 
L 198.738047 210.542729 
L 198.738047 198.775278 
L 193.796468 198.775278 
z
" style="fill:#1f77b4;opacity:0.5;"/>
   </g>
   <g id="patch_28">
    <path clip-path="url(#pfb3161c0b2)" d="M 199.973441 210.542729 
L 204.91502 210.542729 
L 204.91502 191.909774 
L 199.973441 191.909774 
z
" style="fill:#1f77b4;opacity:0.5;"/>
   </g>
   <g id="patch_29">
    <path clip-path="url(#pfb3161c0b2)" d="M 206.150415 210.542729 
L 211.091994 210.542729 
L 211.091994 54.794114 
L 206.150415 54.794114 
z
" style="fill:#1f77b4;opacity:0.5;"/>
   </g>
   <g id="patch_30">
    <path clip-path="url(#pfb3161c0b2)" d="M 212.327388 210.542729 
L 217.268967 210.542729 
L 217.268967 169.860732 
L 212.327388 169.860732 
z
" style="fill:#1f77b4;opacity:0.5;"/>
   </g>
   <g id="patch_31">
    <path clip-path="url(#pfb3161c0b2)" d="M 218.504362 210.542729 
L 223.445941 210.542729 
L 223.445941 193.828894 
L 218.504362 193.828894 
z
" style="fill:#1f77b4;opacity:0.5;"/>
   </g>
   <g id="patch_32">
    <path clip-path="url(#pfb3161c0b2)" d="M 224.681335 210.542729 
L 229.622914 210.542729 
L 229.622914 166.189131 
L 224.681335 166.189131 
z
" style="fill:#1f77b4;opacity:0.5;"/>
   </g>
   <g id="patch_33">
    <path clip-path="url(#pfb3161c0b2)" d="M 230.858309 210.542729 
L 235.799888 210.542729 
L 235.799888 195.717462 
L 230.858309 195.717462 
z
" style="fill:#1f77b4;opacity:0.5;"/>
   </g>
   <g id="patch_34">
    <path clip-path="url(#pfb3161c0b2)" d="M 237.035282 210.542729 
L 241.976861 210.542729 
L 241.976861 116.105949 
L 237.035282 116.105949 
z
" style="fill:#1f77b4;opacity:0.5;"/>
   </g>
   <g id="patch_35">
    <path clip-path="url(#pfb3161c0b2)" d="M 243.212256 210.542729 
L 248.153835 210.542729 
L 248.153835 143.515195 
L 243.212256 143.515195 
z
" style="fill:#1f77b4;opacity:0.5;"/>
   </g>
   <g id="patch_36">
    <path clip-path="url(#pfb3161c0b2)" d="M 249.389229 210.542729 
L 254.330808 210.542729 
L 254.330808 185.824694 
L 249.389229 185.824694 
z
" style="fill:#1f77b4;opacity:0.5;"/>
   </g>
   <g id="patch_37">
    <path clip-path="url(#pfb3161c0b2)" d="M 255.566203 210.542729 
L 260.507782 210.542729 
L 260.507782 196.103508 
L 255.566203 196.103508 
z
" style="fill:#1f77b4;opacity:0.5;"/>
   </g>
   <g id="patch_38">
    <path clip-path="url(#pfb3161c0b2)" d="M 261.743177 210.542729 
L 266.684755 210.542729 
L 266.684755 197.819884 
L 261.743177 197.819884 
z
" style="fill:#1f77b4;opacity:0.5;"/>
   </g>
   <g id="patch_39">
    <path clip-path="url(#pfb3161c0b2)" d="M 267.92015 210.542729 
L 272.861729 210.542729 
L 272.861729 66.350489 
L 267.92015 66.350489 
z
" style="fill:#1f77b4;opacity:0.5;"/>
   </g>
   <g id="patch_40">
    <path clip-path="url(#pfb3161c0b2)" d="M 274.097124 210.542729 
L 279.038702 210.542729 
L 279.038702 119.310962 
L 274.097124 119.310962 
z
" style="fill:#1f77b4;opacity:0.5;"/>
   </g>
   <g id="patch_41">
    <path clip-path="url(#pfb3161c0b2)" d="M 280.274097 210.542729 
L 285.215676 210.542729 
L 285.215676 125.129421 
L 280.274097 125.129421 
z
" style="fill:#1f77b4;opacity:0.5;"/>
   </g>
   <g id="patch_42">
    <path clip-path="url(#pfb3161c0b2)" d="M 286.451071 210.542729 
L 291.392649 210.542729 
L 291.392649 162.159259 
L 286.451071 162.159259 
z
" style="fill:#1f77b4;opacity:0.5;"/>
   </g>
   <g id="patch_43">
    <path clip-path="url(#pfb3161c0b2)" d="M 292.628044 210.542729 
L 297.569623 210.542729 
L 297.569623 153.902324 
L 292.628044 153.902324 
z
" style="fill:#1f77b4;opacity:0.5;"/>
   </g>
   <g id="patch_44">
    <path clip-path="url(#pfb3161c0b2)" d="M 298.805018 210.542729 
L 303.746597 210.542729 
L 303.746597 134.755568 
L 298.805018 134.755568 
z
" style="fill:#1f77b4;opacity:0.5;"/>
   </g>
   <g id="patch_45">
    <path clip-path="url(#pfb3161c0b2)" d="M 304.981991 210.542729 
L 309.92357 210.542729 
L 309.92357 142.284848 
L 304.981991 142.284848 
z
" style="fill:#1f77b4;opacity:0.5;"/>
   </g>
   <g id="patch_46">
    <path clip-path="url(#pfb3161c0b2)" d="M 311.158965 210.542729 
L 316.100544 210.542729 
L 316.100544 132.528167 
L 311.158965 132.528167 
z
" style="fill:#1f77b4;opacity:0.5;"/>
   </g>
   <g id="patch_47">
    <path clip-path="url(#pfb3161c0b2)" d="M 317.335938 210.542729 
L 322.277517 210.542729 
L 322.277517 194.026082 
L 317.335938 194.026082 
z
" style="fill:#1f77b4;opacity:0.5;"/>
   </g>
   <g id="patch_48">
    <path clip-path="url(#pfb3161c0b2)" d="M 323.512912 210.542729 
L 328.454491 210.542729 
L 328.454491 209.579003 
L 323.512912 209.579003 
z
" style="fill:#1f77b4;opacity:0.5;"/>
   </g>
   <g id="patch_49">
    <path clip-path="url(#pfb3161c0b2)" d="M 45.549103 210.542729 
L 50.490682 210.542729 
L 50.490682 207.123949 
L 45.549103 207.123949 
z
" style="fill:#ff7f0e;opacity:0.5;"/>
   </g>
   <g id="patch_50">
    <path clip-path="url(#pfb3161c0b2)" d="M 51.726077 210.542729 
L 56.667655 210.542729 
L 56.667655 145.554826 
L 51.726077 145.554826 
z
" style="fill:#ff7f0e;opacity:0.5;"/>
   </g>
   <g id="patch_51">
    <path clip-path="url(#pfb3161c0b2)" d="M 57.90305 210.542729 
L 62.844629 210.542729 
L 62.844629 192.609673 
L 57.90305 192.609673 
z
" style="fill:#ff7f0e;opacity:0.5;"/>
   </g>
   <g id="patch_52">
    <path clip-path="url(#pfb3161c0b2)" d="M 64.080024 210.542729 
L 69.021603 210.542729 
L 69.021603 176.525866 
L 64.080024 176.525866 
z
" style="fill:#ff7f0e;opacity:0.5;"/>
   </g>
   <g id="patch_53">
    <path clip-path="url(#pfb3161c0b2)" d="M 70.256997 210.542729 
L 75.198576 210.542729 
L 75.198576 119.307918 
L 70.256997 119.307918 
z
" style="fill:#ff7f0e;opacity:0.5;"/>
   </g>
   <g id="patch_54">
    <path clip-path="url(#pfb3161c0b2)" d="M 76.433971 210.542729 
L 81.37555 210.542729 
L 81.37555 158.996848 
L 76.433971 158.996848 
z
" style="fill:#ff7f0e;opacity:0.5;"/>
   </g>
   <g id="patch_55">
    <path clip-path="url(#pfb3161c0b2)" d="M 82.610944 210.542729 
L 87.552523 210.542729 
L 87.552523 153.060602 
L 82.610944 153.060602 
z
" style="fill:#ff7f0e;opacity:0.5;"/>
   </g>
   <g id="patch_56">
    <path clip-path="url(#pfb3161c0b2)" d="M 88.787918 210.542729 
L 93.729497 210.542729 
L 93.729497 156.526002 
L 88.787918 156.526002 
z
" style="fill:#ff7f0e;opacity:0.5;"/>
   </g>
   <g id="patch_57">
    <path clip-path="url(#pfb3161c0b2)" d="M 94.964891 210.542729 
L 99.90647 210.542729 
L 99.90647 132.019564 
L 94.964891 132.019564 
z
" style="fill:#ff7f0e;opacity:0.5;"/>
   </g>
   <g id="patch_58">
    <path clip-path="url(#pfb3161c0b2)" d="M 101.141865 210.542729 
L 106.083444 210.542729 
L 106.083444 36.961936 
L 101.141865 36.961936 
z
" style="fill:#ff7f0e;opacity:0.5;"/>
   </g>
   <g id="patch_59">
    <path clip-path="url(#pfb3161c0b2)" d="M 107.318838 210.542729 
L 112.260417 210.542729 
L 112.260417 181.498637 
L 107.318838 181.498637 
z
" style="fill:#ff7f0e;opacity:0.5;"/>
   </g>
   <g id="patch_60">
    <path clip-path="url(#pfb3161c0b2)" d="M 113.495812 210.542729 
L 118.437391 210.542729 
L 118.437391 183.301267 
L 113.495812 183.301267 
z
" style="fill:#ff7f0e;opacity:0.5;"/>
   </g>
   <g id="patch_61">
    <path clip-path="url(#pfb3161c0b2)" d="M 119.672785 210.542729 
L 124.614364 210.542729 
L 124.614364 108.134723 
L 119.672785 108.134723 
z
" style="fill:#ff7f0e;opacity:0.5;"/>
   </g>
   <g id="patch_62">
    <path clip-path="url(#pfb3161c0b2)" d="M 125.849759 210.542729 
L 130.791338 210.542729 
L 130.791338 85.757253 
L 125.849759 85.757253 
z
" style="fill:#ff7f0e;opacity:0.5;"/>
   </g>
   <g id="patch_63">
    <path clip-path="url(#pfb3161c0b2)" d="M 132.026732 210.542729 
L 136.968311 210.542729 
L 136.968311 94.661621 
L 132.026732 94.661621 
z
" style="fill:#ff7f0e;opacity:0.5;"/>
   </g>
   <g id="patch_64">
    <path clip-path="url(#pfb3161c0b2)" d="M 138.203706 210.542729 
L 143.145285 210.542729 
L 143.145285 178.235256 
L 138.203706 178.235256 
z
" style="fill:#ff7f0e;opacity:0.5;"/>
   </g>
   <g id="patch_65">
    <path clip-path="url(#pfb3161c0b2)" d="M 144.38068 210.542729 
L 149.322258 210.542729 
L 149.322258 70.605841 
L 144.38068 70.605841 
z
" style="fill:#ff7f0e;opacity:0.5;"/>
   </g>
   <g id="patch_66">
    <path clip-path="url(#pfb3161c0b2)" d="M 150.557653 210.542729 
L 155.499232 210.542729 
L 155.499232 177.66028 
L 150.557653 177.66028 
z
" style="fill:#ff7f0e;opacity:0.5;"/>
   </g>
   <g id="patch_67">
    <path clip-path="url(#pfb3161c0b2)" d="M 156.734627 210.542729 
L 161.676205 210.542729 
L 161.676205 190.667184 
L 156.734627 190.667184 
z
" style="fill:#ff7f0e;opacity:0.5;"/>
   </g>
   <g id="patch_68">
    <path clip-path="url(#pfb3161c0b2)" d="M 162.9116 210.542729 
L 167.853179 210.542729 
L 167.853179 180.737182 
L 162.9116 180.737182 
z
" style="fill:#ff7f0e;opacity:0.5;"/>
   </g>
   <g id="patch_69">
    <path clip-path="url(#pfb3161c0b2)" d="M 169.088574 210.542729 
L 174.030152 210.542729 
L 174.030152 184.342441 
L 169.088574 184.342441 
z
" style="fill:#ff7f0e;opacity:0.5;"/>
   </g>
   <g id="patch_70">
    <path clip-path="url(#pfb3161c0b2)" d="M 175.265547 210.542729 
L 180.207126 210.542729 
L 180.207126 186.362629 
L 175.265547 186.362629 
z
" style="fill:#ff7f0e;opacity:0.5;"/>
   </g>
   <g id="patch_71">
    <path clip-path="url(#pfb3161c0b2)" d="M 181.442521 210.542729 
L 186.3841 210.542729 
L 186.3841 140.706374 
L 181.442521 140.706374 
z
" style="fill:#ff7f0e;opacity:0.5;"/>
   </g>
   <g id="patch_72">
    <path clip-path="url(#pfb3161c0b2)" d="M 187.619494 210.542729 
L 192.561073 210.542729 
L 192.561073 197.893242 
L 187.619494 197.893242 
z
" style="fill:#ff7f0e;opacity:0.5;"/>
   </g>
   <g id="patch_73">
    <path clip-path="url(#pfb3161c0b2)" d="M 193.796468 210.542729 
L 198.738047 210.542729 
L 198.738047 194.163664 
L 193.796468 194.163664 
z
" style="fill:#ff7f0e;opacity:0.5;"/>
   </g>
   <g id="patch_74">
    <path clip-path="url(#pfb3161c0b2)" d="M 199.973441 210.542729 
L 204.91502 210.542729 
L 204.91502 198.841177 
L 199.973441 198.841177 
z
" style="fill:#ff7f0e;opacity:0.5;"/>
   </g>
   <g id="patch_75">
    <path clip-path="url(#pfb3161c0b2)" d="M 206.150415 210.542729 
L 211.091994 210.542729 
L 211.091994 61.717012 
L 206.150415 61.717012 
z
" style="fill:#ff7f0e;opacity:0.5;"/>
   </g>
   <g id="patch_76">
    <path clip-path="url(#pfb3161c0b2)" d="M 212.327388 210.542729 
L 217.268967 210.542729 
L 217.268967 166.797883 
L 212.327388 166.797883 
z
" style="fill:#ff7f0e;opacity:0.5;"/>
   </g>
   <g id="patch_77">
    <path clip-path="url(#pfb3161c0b2)" d="M 218.504362 210.542729 
L 223.445941 210.542729 
L 223.445941 191.459719 
L 218.504362 191.459719 
z
" style="fill:#ff7f0e;opacity:0.5;"/>
   </g>
   <g id="patch_78">
    <path clip-path="url(#pfb3161c0b2)" d="M 224.681335 210.542729 
L 229.622914 210.542729 
L 229.622914 162.835206 
L 224.681335 162.835206 
z
" style="fill:#ff7f0e;opacity:0.5;"/>
   </g>
   <g id="patch_79">
    <path clip-path="url(#pfb3161c0b2)" d="M 230.858309 210.542729 
L 235.799888 210.542729 
L 235.799888 192.578593 
L 230.858309 192.578593 
z
" style="fill:#ff7f0e;opacity:0.5;"/>
   </g>
   <g id="patch_80">
    <path clip-path="url(#pfb3161c0b2)" d="M 237.035282 210.542729 
L 241.976861 210.542729 
L 241.976861 147.326376 
L 237.035282 147.326376 
z
" style="fill:#ff7f0e;opacity:0.5;"/>
   </g>
   <g id="patch_81">
    <path clip-path="url(#pfb3161c0b2)" d="M 243.212256 210.542729 
L 248.153835 210.542729 
L 248.153835 157.924594 
L 243.212256 157.924594 
z
" style="fill:#ff7f0e;opacity:0.5;"/>
   </g>
   <g id="patch_82">
    <path clip-path="url(#pfb3161c0b2)" d="M 249.389229 210.542729 
L 254.330808 210.542729 
L 254.330808 192.267795 
L 249.389229 192.267795 
z
" style="fill:#ff7f0e;opacity:0.5;"/>
   </g>
   <g id="patch_83">
    <path clip-path="url(#pfb3161c0b2)" d="M 255.566203 210.542729 
L 260.507782 210.542729 
L 260.507782 198.28174 
L 255.566203 198.28174 
z
" style="fill:#ff7f0e;opacity:0.5;"/>
   </g>
   <g id="patch_84">
    <path clip-path="url(#pfb3161c0b2)" d="M 261.743177 210.542729 
L 266.684755 210.542729 
L 266.684755 194.536622 
L 261.743177 194.536622 
z
" style="fill:#ff7f0e;opacity:0.5;"/>
   </g>
   <g id="patch_85">
    <path clip-path="url(#pfb3161c0b2)" d="M 267.92015 210.542729 
L 272.861729 210.542729 
L 272.861729 145.057549 
L 267.92015 145.057549 
z
" style="fill:#ff7f0e;opacity:0.5;"/>
   </g>
   <g id="patch_86">
    <path clip-path="url(#pfb3161c0b2)" d="M 274.097124 210.542729 
L 279.038702 210.542729 
L 279.038702 152.159287 
L 274.097124 152.159287 
z
" style="fill:#ff7f0e;opacity:0.5;"/>
   </g>
   <g id="patch_87">
    <path clip-path="url(#pfb3161c0b2)" d="M 280.274097 210.542729 
L 285.215676 210.542729 
L 285.215676 167.29516 
L 280.274097 167.29516 
z
" style="fill:#ff7f0e;opacity:0.5;"/>
   </g>
   <g id="patch_88">
    <path clip-path="url(#pfb3161c0b2)" d="M 286.451071 210.542729 
L 291.392649 210.542729 
L 291.392649 176.603566 
L 286.451071 176.603566 
z
" style="fill:#ff7f0e;opacity:0.5;"/>
   </g>
   <g id="patch_89">
    <path clip-path="url(#pfb3161c0b2)" d="M 292.628044 210.542729 
L 297.569623 210.542729 
L 297.569623 194.73864 
L 292.628044 194.73864 
z
" style="fill:#ff7f0e;opacity:0.5;"/>
   </g>
   <g id="patch_90">
    <path clip-path="url(#pfb3161c0b2)" d="M 298.805018 210.542729 
L 303.746597 210.542729 
L 303.746597 196.385871 
L 298.805018 196.385871 
z
" style="fill:#ff7f0e;opacity:0.5;"/>
   </g>
   <g id="patch_91">
    <path clip-path="url(#pfb3161c0b2)" d="M 304.981991 210.542729 
L 309.92357 210.542729 
L 309.92357 195.422396 
L 304.981991 195.422396 
z
" style="fill:#ff7f0e;opacity:0.5;"/>
   </g>
   <g id="patch_92">
    <path clip-path="url(#pfb3161c0b2)" d="M 311.158965 210.542729 
L 316.100544 210.542729 
L 316.100544 180.441923 
L 311.158965 180.441923 
z
" style="fill:#ff7f0e;opacity:0.5;"/>
   </g>
   <g id="patch_93">
    <path clip-path="url(#pfb3161c0b2)" d="M 317.335938 210.542729 
L 322.277517 210.542729 
L 322.277517 188.895634 
L 317.335938 188.895634 
z
" style="fill:#ff7f0e;opacity:0.5;"/>
   </g>
   <g id="patch_94">
    <path clip-path="url(#pfb3161c0b2)" d="M 323.512912 210.542729 
L 328.454491 210.542729 
L 328.454491 208.63132 
L 323.512912 208.63132 
z
" style="fill:#ff7f0e;opacity:0.5;"/>
   </g>
   <g id="matplotlib.axis_1">
    <g id="xtick_1">
     <g id="line2d_1">
      <defs>
       <path d="M 0 0 
L 0 3.5 
" id="ma672a8c24b" style="stroke:#000000;stroke-width:0.8;"/>
      </defs>
      <g>
       <use style="stroke:#000000;stroke-width:0.8;" x="54.196866" xlink:href="#ma672a8c24b" y="210.542729"/>
      </g>
     </g>
     <g id="text_1">
      <!-- 0 -->
      <defs>
       <path d="M 2.09375 35.296875 
Q 2.09375 54.40625 9.703125 63.59375 
Q 16.203125 71.40625 27.703125 71.40625 
Q 39.296875 71.40625 45.90625 63.59375 
Q 53.5 54.5 53.5 35.296875 
Q 53.5 -1.40625 27.703125 -1.40625 
Q 2.09375 -1.40625 2.09375 35.296875 
z
M 16.296875 35.296875 
Q 16.296875 25.09375 17.703125 19.796875 
Q 20.296875 10.296875 27.703125 10.296875 
Q 35.203125 10.296875 37.90625 19.796875 
Q 39.296875 25.09375 39.296875 35.296875 
Q 39.296875 59.703125 27.703125 59.703125 
Q 16.296875 59.703125 16.296875 35.296875 
z
" id="HelveticaNeueBold-48"/>
      </defs>
      <g transform="translate(51.13921 225.397416)scale(0.11 -0.11)">
       <use xlink:href="#HelveticaNeueBold-48"/>
      </g>
     </g>
    </g>
    <g id="xtick_2">
     <g id="line2d_2">
      <g>
       <use style="stroke:#000000;stroke-width:0.8;" x="115.966601" xlink:href="#ma672a8c24b" y="210.542729"/>
      </g>
     </g>
     <g id="text_2">
      <!-- 10 -->
      <defs>
       <path d="M 39.203125 70 
L 39.203125 0 
L 25 0 
L 25 45.40625 
L 7.40625 45.40625 
L 7.40625 56.09375 
Q 25.90625 55.703125 27.90625 70 
z
" id="HelveticaNeueBold-49"/>
      </defs>
      <g transform="translate(109.851289 225.397416)scale(0.11 -0.11)">
       <use xlink:href="#HelveticaNeueBold-49"/>
       <use x="55.599991" xlink:href="#HelveticaNeueBold-48"/>
      </g>
     </g>
    </g>
    <g id="xtick_3">
     <g id="line2d_3">
      <g>
       <use style="stroke:#000000;stroke-width:0.8;" x="177.736337" xlink:href="#ma672a8c24b" y="210.542729"/>
      </g>
     </g>
     <g id="text_3">
      <!-- 20 -->
      <defs>
       <path d="M 17.296875 43.09375 
L 3.703125 43.09375 
Q 3.296875 55.5 10.046875 63.453125 
Q 16.796875 71.40625 29.09375 71.40625 
Q 39.09375 71.40625 45.90625 65.59375 
Q 53.09375 59.40625 53.09375 49.5 
Q 53.09375 40.203125 46.90625 33.59375 
Q 43.796875 30.296875 33.296875 23.5 
Q 24.09375 17.40625 20.40625 12.203125 
L 53.5 12.203125 
L 53.5 0 
L 2.09375 0 
Q 2.203125 10.90625 8.59375 18.703125 
Q 12.703125 23.5 24.203125 31.296875 
Q 32.40625 36.90625 33.90625 38.203125 
Q 38.90625 42.796875 38.90625 48.40625 
Q 38.90625 53.296875 35.953125 56.25 
Q 33 59.203125 28.40625 59.203125 
Q 22.59375 59.203125 19.703125 53.90625 
Q 17.296875 49.59375 17.296875 43.09375 
z
" id="HelveticaNeueBold-50"/>
      </defs>
      <g transform="translate(171.621024 225.397416)scale(0.11 -0.11)">
       <use xlink:href="#HelveticaNeueBold-50"/>
       <use x="55.599991" xlink:href="#HelveticaNeueBold-48"/>
      </g>
     </g>
    </g>
    <g id="xtick_4">
     <g id="line2d_4">
      <g>
       <use style="stroke:#000000;stroke-width:0.8;" x="239.506072" xlink:href="#ma672a8c24b" y="210.542729"/>
      </g>
     </g>
     <g id="text_4">
      <!-- 30 -->
      <defs>
       <path d="M 22.796875 31.703125 
L 22.796875 41.703125 
Q 28.59375 41.203125 32.5 42.90625 
Q 37.703125 45 37.703125 50.40625 
Q 37.703125 54.703125 34.796875 57.203125 
Q 31.90625 59.703125 27.796875 59.703125 
Q 22.59375 59.703125 19.75 56.25 
Q 16.90625 52.796875 17 47.203125 
L 3.5 47.203125 
Q 3.90625 58 10.453125 64.703125 
Q 17 71.40625 27.703125 71.40625 
Q 36.796875 71.40625 43.703125 66.40625 
Q 51.203125 60.796875 51.203125 52 
Q 51.203125 46.796875 48.703125 43.09375 
Q 46.09375 39 41.40625 37.703125 
L 41.40625 37.5 
Q 47.09375 36.203125 50.4375 31.84375 
Q 53.796875 27.5 53.796875 21.59375 
Q 53.796875 11 45.90625 4.59375 
Q 38.59375 -1.40625 27.796875 -1.40625 
Q 15.796875 -1.40625 8.6875 5.390625 
Q 1.59375 12.203125 1.796875 24.09375 
L 15.296875 24.09375 
Q 15.5 18 18.5 14.40625 
Q 21.703125 10.296875 27.59375 10.296875 
Q 32.5 10.296875 35.75 13.34375 
Q 39 16.40625 39 21.296875 
Q 39 28.296875 33.5 30.5 
Q 30.40625 31.703125 22.796875 31.703125 
z
" id="HelveticaNeueBold-51"/>
      </defs>
      <g transform="translate(233.390759 225.397416)scale(0.11 -0.11)">
       <use xlink:href="#HelveticaNeueBold-51"/>
       <use x="55.599991" xlink:href="#HelveticaNeueBold-48"/>
      </g>
     </g>
    </g>
    <g id="xtick_5">
     <g id="line2d_5">
      <g>
       <use style="stroke:#000000;stroke-width:0.8;" x="301.275807" xlink:href="#ma672a8c24b" y="210.542729"/>
      </g>
     </g>
     <g id="text_5">
      <!-- 40 -->
      <defs>
       <path d="M 31.203125 0 
L 31.203125 16.203125 
L 1.59375 16.203125 
L 1.59375 29.203125 
L 32 70 
L 44.703125 70 
L 44.703125 27.90625 
L 54 27.90625 
L 54 16.203125 
L 44.703125 16.203125 
L 44.703125 0 
z
M 31.203125 27.90625 
L 31.203125 52.203125 
L 30.90625 52.203125 
L 12.796875 27.90625 
z
" id="HelveticaNeueBold-52"/>
      </defs>
      <g transform="translate(295.160495 225.397416)scale(0.11 -0.11)">
       <use xlink:href="#HelveticaNeueBold-52"/>
       <use x="55.599991" xlink:href="#HelveticaNeueBold-48"/>
      </g>
     </g>
    </g>
   </g>
   <g id="matplotlib.axis_2">
    <g id="ytick_1">
     <g id="line2d_6">
      <defs>
       <path d="M 0 0 
L -3.5 0 
" id="m6996e7b2cc" style="stroke:#000000;stroke-width:0.8;"/>
      </defs>
      <g>
       <use style="stroke:#000000;stroke-width:0.8;" x="31.403834" xlink:href="#m6996e7b2cc" y="210.542729"/>
      </g>
     </g>
     <g id="text_6">
      <!-- 0.00 -->
      <defs>
       <path d="M 6 0 
L 6 15.40625 
L 21.703125 15.40625 
L 21.703125 0 
z
" id="HelveticaNeueBold-46"/>
      </defs>
      <g transform="translate(3.00024 214.470073)scale(0.11 -0.11)">
       <use xlink:href="#HelveticaNeueBold-48"/>
       <use x="55.599991" xlink:href="#HelveticaNeueBold-46"/>
       <use x="83.399979" xlink:href="#HelveticaNeueBold-48"/>
       <use x="138.999969" xlink:href="#HelveticaNeueBold-48"/>
      </g>
     </g>
    </g>
    <g id="ytick_2">
     <g id="line2d_7">
      <g>
       <use style="stroke:#000000;stroke-width:0.8;" x="31.403834" xlink:href="#m6996e7b2cc" y="166.915675"/>
      </g>
     </g>
     <g id="text_7">
      <!-- 0.02 -->
      <g transform="translate(3.00024 170.843019)scale(0.11 -0.11)">
       <use xlink:href="#HelveticaNeueBold-48"/>
       <use x="55.599991" xlink:href="#HelveticaNeueBold-46"/>
       <use x="83.399979" xlink:href="#HelveticaNeueBold-48"/>
       <use x="138.999969" xlink:href="#HelveticaNeueBold-50"/>
      </g>
     </g>
    </g>
    <g id="ytick_3">
     <g id="line2d_8">
      <g>
       <use style="stroke:#000000;stroke-width:0.8;" x="31.403834" xlink:href="#m6996e7b2cc" y="123.288621"/>
      </g>
     </g>
     <g id="text_8">
      <!-- 0.04 -->
      <g transform="translate(3.00024 127.215965)scale(0.11 -0.11)">
       <use xlink:href="#HelveticaNeueBold-48"/>
       <use x="55.599991" xlink:href="#HelveticaNeueBold-46"/>
       <use x="83.399979" xlink:href="#HelveticaNeueBold-48"/>
       <use x="138.999969" xlink:href="#HelveticaNeueBold-52"/>
      </g>
     </g>
    </g>
    <g id="ytick_4">
     <g id="line2d_9">
      <g>
       <use style="stroke:#000000;stroke-width:0.8;" x="31.403834" xlink:href="#m6996e7b2cc" y="79.661568"/>
      </g>
     </g>
     <g id="text_9">
      <!-- 0.06 -->
      <defs>
       <path d="M 52.296875 52 
L 38.796875 52 
Q 38.09375 55.703125 35.546875 58.203125 
Q 33 60.703125 29.40625 60.703125 
Q 22.59375 60.703125 19 53 
Q 16.40625 47.40625 16 39.40625 
L 16.203125 39.203125 
Q 21.703125 47 32 47 
Q 41.703125 47 48.09375 39.796875 
Q 53.5 33.703125 53.5 24.203125 
Q 53.5 13.296875 46.640625 5.9375 
Q 39.796875 -1.40625 29 -1.40625 
Q 14.40625 -1.40625 7.59375 10.09375 
Q 2.09375 19.296875 2.09375 34.796875 
Q 2.09375 49.5 8.40625 59.5 
Q 15.796875 71.40625 29.59375 71.40625 
Q 38.796875 71.40625 44.9375 66.25 
Q 51.09375 61.09375 52.296875 52 
z
M 28.59375 36.296875 
Q 23.203125 36.296875 20.25 32.546875 
Q 17.296875 28.796875 17.296875 23.296875 
Q 17.296875 18.09375 20.296875 14.40625 
Q 23.5 10.296875 28.59375 10.296875 
Q 33.40625 10.296875 36.5 14.296875 
Q 39.296875 18 39.296875 23.09375 
Q 39.296875 28.5 36.703125 32.203125 
Q 33.796875 36.296875 28.59375 36.296875 
z
" id="HelveticaNeueBold-54"/>
      </defs>
      <g transform="translate(3.00024 83.588911)scale(0.11 -0.11)">
       <use xlink:href="#HelveticaNeueBold-48"/>
       <use x="55.599991" xlink:href="#HelveticaNeueBold-46"/>
       <use x="83.399979" xlink:href="#HelveticaNeueBold-48"/>
       <use x="138.999969" xlink:href="#HelveticaNeueBold-54"/>
      </g>
     </g>
    </g>
    <g id="ytick_5">
     <g id="line2d_10">
      <g>
       <use style="stroke:#000000;stroke-width:0.8;" x="31.403834" xlink:href="#m6996e7b2cc" y="36.034514"/>
      </g>
     </g>
     <g id="text_10">
      <!-- 0.08 -->
      <defs>
       <path d="M 15.59375 21.203125 
Q 15.59375 15.90625 19.1875 12.59375 
Q 22.796875 9.296875 28 9.296875 
Q 33.203125 9.296875 36.59375 12.59375 
Q 40 15.90625 40 21.09375 
Q 40 26 36.546875 29.140625 
Q 33.09375 32.296875 28 32.296875 
Q 22.59375 32.296875 19.203125 29.5 
Q 15.59375 26.40625 15.59375 21.203125 
z
M 4.296875 52.296875 
Q 4.296875 61.203125 11.796875 66.59375 
Q 18.59375 71.40625 27.90625 71.40625 
Q 39.59375 71.40625 46.09375 64.59375 
Q 51.296875 59.09375 51.296875 52.59375 
Q 51.296875 41.40625 41.09375 37.703125 
L 41.09375 37.703125 
Q 47.296875 36.296875 50.75 31.75 
Q 54.203125 27.203125 54.203125 20.59375 
Q 54.203125 10.203125 46 4.09375 
Q 38.59375 -1.40625 28 -1.40625 
Q 17 -1.40625 9.59375 3.90625 
Q 1.40625 9.796875 1.40625 20.5 
Q 1.40625 27.09375 4.90625 31.640625 
Q 8.40625 36.203125 14.59375 37.703125 
L 14.59375 37.90625 
Q 4.296875 40.796875 4.296875 52.296875 
z
M 17.203125 51 
Q 17.203125 46.59375 20.296875 44.1875 
Q 23.40625 41.796875 27.90625 41.796875 
Q 32.40625 41.796875 35.40625 44.25 
Q 38.40625 46.703125 38.40625 51 
Q 38.40625 54.703125 36.5 57.203125 
Q 33.703125 60.703125 27.90625 60.703125 
Q 23.40625 60.703125 20.296875 58.09375 
Q 17.203125 55.5 17.203125 51 
z
" id="HelveticaNeueBold-56"/>
      </defs>
      <g transform="translate(3.00024 39.961858)scale(0.11 -0.11)">
       <use xlink:href="#HelveticaNeueBold-48"/>
       <use x="55.599991" xlink:href="#HelveticaNeueBold-46"/>
       <use x="83.399979" xlink:href="#HelveticaNeueBold-48"/>
       <use x="138.999969" xlink:href="#HelveticaNeueBold-56"/>
      </g>
     </g>
    </g>
   </g>
   <g id="patch_95">
    <path d="M 31.403834 210.542729 
L 31.403834 28.282896 
" style="fill:none;stroke:#000000;stroke-linecap:square;stroke-linejoin:miter;stroke-width:0.8;"/>
   </g>
   <g id="patch_96">
    <path d="M 342.59976 210.542729 
L 342.59976 28.282896 
" style="fill:none;stroke:#000000;stroke-linecap:square;stroke-linejoin:miter;stroke-width:0.8;"/>
   </g>
   <g id="patch_97">
    <path d="M 31.403834 210.542729 
L 342.59976 210.542729 
" style="fill:none;stroke:#000000;stroke-linecap:square;stroke-linejoin:miter;stroke-width:0.8;"/>
   </g>
   <g id="patch_98">
    <path d="M 31.403834 28.282896 
L 342.59976 28.282896 
" style="fill:none;stroke:#000000;stroke-linecap:square;stroke-linejoin:miter;stroke-width:0.8;"/>
   </g>
   <g id="text_11">
    <!-- CAMEO_DEU_2015 -->
    <defs>
     <path d="M 69.703125 47.40625 
L 54.5 47.40625 
Q 53.796875 52.703125 49.296875 56.296875 
Q 44.796875 59.90625 38.90625 59.90625 
Q 29 59.90625 23.90625 52.296875 
Q 19.5 45.796875 19.5 35.40625 
Q 19.5 25.40625 23.90625 19 
Q 29.09375 11.5 38.90625 11.5 
Q 45.90625 11.5 50.203125 16 
Q 54.203125 20.203125 55.09375 27.5 
L 70.296875 27.5 
Q 69.09375 14.203125 60.546875 6.25 
Q 52 -1.703125 38.90625 -1.703125 
Q 22.796875 -1.703125 13.09375 9.09375 
Q 3.796875 19.40625 3.796875 35.40625 
Q 3.796875 51.796875 13.09375 62.203125 
Q 22.703125 73.09375 38.90625 73.09375 
Q 51.09375 73.09375 59.5 66.40625 
Q 68.296875 59.40625 69.703125 47.40625 
z
" id="HelveticaNeueBold-67"/>
     <path d="M -0.703125 0 
L 26.40625 71.40625 
L 42.5 71.40625 
L 69.203125 0 
L 52.90625 0 
L 47.5 15.90625 
L 20.796875 15.90625 
L 15.203125 0 
z
M 34.203125 53.796875 
L 24.90625 27.59375 
L 43.40625 27.59375 
L 34.40625 53.796875 
z
" id="HelveticaNeueBold-65"/>
     <path d="M 6.90625 0 
L 6.90625 71.40625 
L 29 71.40625 
L 45.703125 22.296875 
L 45.90625 22.296875 
L 61.703125 71.40625 
L 83.796875 71.40625 
L 83.796875 0 
L 69.09375 0 
L 69.09375 50.59375 
L 68.90625 50.59375 
L 51.40625 0 
L 39.296875 0 
L 21.796875 50.09375 
L 21.59375 50.09375 
L 21.59375 0 
z
" id="HelveticaNeueBold-77"/>
     <path d="M 6.90625 0 
L 6.90625 71.40625 
L 60.296875 71.40625 
L 60.296875 58.203125 
L 22.59375 58.203125 
L 22.59375 42.90625 
L 57.203125 42.90625 
L 57.203125 30.703125 
L 22.59375 30.703125 
L 22.59375 13.203125 
L 61.09375 13.203125 
L 61.09375 0 
z
" id="HelveticaNeueBold-69"/>
     <path d="M 3.796875 35.40625 
Q 3.796875 51.796875 13.09375 62.203125 
Q 22.703125 73.09375 38.90625 73.09375 
Q 55.09375 73.09375 64.703125 62.203125 
Q 74 51.796875 74 35.40625 
Q 74 19.40625 64.703125 9.09375 
Q 55 -1.703125 38.90625 -1.703125 
Q 22.796875 -1.703125 13.09375 9.09375 
Q 3.796875 19.40625 3.796875 35.40625 
z
M 19.5 35.40625 
Q 19.5 25.40625 23.90625 19 
Q 29.09375 11.5 38.90625 11.5 
Q 48.703125 11.5 53.90625 19 
Q 58.296875 25.40625 58.296875 35.40625 
Q 58.296875 45.796875 53.90625 52.296875 
Q 48.796875 59.90625 38.90625 59.90625 
Q 29 59.90625 23.90625 52.296875 
Q 19.5 45.796875 19.5 35.40625 
z
" id="HelveticaNeueBold-79"/>
     <path d="M 0 -12.5 
L 0 -7.5 
L 50 -7.5 
L 50 -12.5 
z
" id="HelveticaNeueBold-95"/>
     <path d="M 6.90625 0 
L 6.90625 71.40625 
L 37.703125 71.40625 
Q 52.203125 71.40625 60.796875 62.59375 
Q 70.09375 53.296875 70.09375 36.09375 
Q 70.09375 19.90625 62.09375 10.296875 
Q 53.5 0 37.703125 0 
z
M 22.59375 58.203125 
L 22.59375 13.203125 
L 36.59375 13.203125 
Q 44.203125 13.203125 48.90625 18 
Q 54.40625 23.59375 54.40625 34.59375 
Q 54.40625 46.09375 50 51.796875 
Q 45 58.203125 33.796875 58.203125 
z
" id="HelveticaNeueBold-68"/>
     <path d="M 67.5 71.40625 
L 67.5 27 
Q 67.5 12.796875 59.546875 5.546875 
Q 51.59375 -1.703125 37 -1.703125 
Q 6.59375 -1.703125 6.59375 27 
L 6.59375 71.40625 
L 22.296875 71.40625 
L 22.296875 27 
Q 22.296875 19.90625 24.90625 16.296875 
Q 28.40625 11.5 37 11.5 
Q 45.203125 11.5 48.59375 15.296875 
Q 51.796875 18.796875 51.796875 27 
L 51.796875 71.40625 
z
" id="HelveticaNeueBold-85"/>
     <path d="M 50 70 
L 50 58.296875 
L 21.09375 58.296875 
L 18.296875 42.40625 
L 18.5 42.203125 
Q 23.796875 47.59375 32.203125 47.59375 
Q 42.203125 47.59375 48.203125 40.59375 
Q 53.796875 34 53.796875 23.796875 
Q 53.796875 13.09375 46.140625 5.796875 
Q 38.5 -1.5 27.796875 -1.40625 
Q 16.90625 -1.296875 9.796875 4.203125 
Q 1.90625 10.296875 1.796875 20.796875 
L 16 20.796875 
Q 16.5 16.09375 19.703125 13.1875 
Q 22.90625 10.296875 27.5 10.296875 
Q 32.90625 10.296875 36.25 14.296875 
Q 39.59375 18.296875 39.59375 23.796875 
Q 39.59375 29.40625 36.34375 33.15625 
Q 33.09375 36.90625 27.5 36.90625 
Q 20.90625 36.90625 16.796875 31.296875 
L 4 31.296875 
L 10.90625 70 
z
" id="HelveticaNeueBold-53"/>
    </defs>
    <g transform="translate(136.883047 10.854928)scale(0.11 -0.11)">
     <use xlink:href="#HelveticaNeueBold-67"/>
     <use x="74.099991" xlink:href="#HelveticaNeueBold-65"/>
     <use x="142.599976" xlink:href="#HelveticaNeueBold-77"/>
     <use x="233.299957" xlink:href="#HelveticaNeueBold-69"/>
     <use x="298.099945" xlink:href="#HelveticaNeueBold-79"/>
     <use x="375.899933" xlink:href="#HelveticaNeueBold-95"/>
     <use x="425.899918" xlink:href="#HelveticaNeueBold-68"/>
     <use x="499.999908" xlink:href="#HelveticaNeueBold-69"/>
     <use x="564.799896" xlink:href="#HelveticaNeueBold-85"/>
     <use x="638.899887" xlink:href="#HelveticaNeueBold-95"/>
     <use x="688.899872" xlink:href="#HelveticaNeueBold-50"/>
     <use x="744.499863" xlink:href="#HelveticaNeueBold-48"/>
     <use x="800.099854" xlink:href="#HelveticaNeueBold-49"/>
     <use x="855.699844" xlink:href="#HelveticaNeueBold-53"/>
    </g>
    <!-- cross entropy: 5.336904607928797 -->
    <defs>
     <path d="M 54.5 33.5 
L 40.59375 33.5 
Q 39.203125 42.40625 30.09375 42.40625 
Q 23.90625 42.40625 20.59375 36.90625 
Q 18 32.296875 18 25.59375 
Q 18 19.09375 20.59375 14.703125 
Q 23.703125 9.296875 29.796875 9.296875 
Q 39.59375 9.296875 41.09375 19.796875 
L 54.796875 19.796875 
Q 53.5 9.59375 46.84375 4.09375 
Q 40.203125 -1.40625 29.90625 -1.40625 
Q 18.296875 -1.40625 11.046875 6 
Q 3.796875 13.40625 3.796875 25.09375 
Q 3.796875 37.5 10.703125 45.09375 
Q 17.90625 53.09375 30.203125 53.09375 
Q 40 53.09375 46.59375 48.296875 
Q 53.90625 42.90625 54.5 33.5 
z
" id="HelveticaNeueBold-99"/>
     <path d="M 5.40625 0 
L 5.40625 51.703125 
L 18.90625 51.703125 
L 18.90625 42.09375 
L 19.09375 42.09375 
Q 21 46.90625 25.703125 50 
Q 30.40625 53.09375 35.59375 53.09375 
Q 37.203125 53.09375 38.703125 52.59375 
L 38.703125 39.40625 
Q 36.5 39.90625 33.59375 39.90625 
Q 19.59375 39.90625 19.59375 23.296875 
L 19.59375 0 
z
" id="HelveticaNeueBold-114"/>
     <path d="M 3.796875 25.796875 
Q 3.796875 38.203125 11.09375 45.640625 
Q 18.40625 53.09375 30.5 53.09375 
Q 42.703125 53.09375 50 45.640625 
Q 57.296875 38.203125 57.296875 25.796875 
Q 57.296875 13.5 50 6.046875 
Q 42.703125 -1.40625 30.5 -1.40625 
Q 18.40625 -1.40625 11.09375 6.046875 
Q 3.796875 13.5 3.796875 25.796875 
z
M 18 25.796875 
Q 18 18.703125 20.703125 14.5 
Q 23.90625 9.296875 30.5 9.296875 
Q 43.09375 9.296875 43.09375 25.796875 
Q 43.09375 42.40625 30.5 42.40625 
Q 18 42.40625 18 25.796875 
z
" id="HelveticaNeueBold-111"/>
     <path d="M 2.90625 16.796875 
L 16.40625 16.796875 
Q 16.5 12.40625 19.796875 10.09375 
Q 22.703125 8.09375 27.296875 8.09375 
Q 31 8.09375 33.5 9.5 
Q 36.59375 11.296875 36.59375 14.703125 
Q 36.59375 17.703125 32.40625 19.5 
Q 29.40625 20.796875 20.5 22.703125 
Q 12.90625 24.296875 9.203125 26.90625 
Q 4.09375 30.296875 4.09375 36.5 
Q 4.09375 53.09375 26.59375 53.09375 
Q 48 53.09375 49.40625 36.59375 
L 35.90625 36.59375 
Q 35.40625 43.59375 26.203125 43.59375 
Q 18.296875 43.59375 18.296875 38.796875 
Q 18.296875 35.5 23.296875 33.703125 
Q 23.90625 33.5 34.40625 31.09375 
Q 42.09375 29.296875 45.703125 26.703125 
Q 50.796875 23.09375 50.796875 16.59375 
Q 50.796875 7.203125 43.40625 2.5 
Q 37.296875 -1.40625 27.203125 -1.40625 
Q 17.09375 -1.40625 10.796875 2.59375 
Q 3.296875 7.296875 2.90625 16.796875 
z
" id="HelveticaNeueBold-115"/>
     <path id="HelveticaNeueBold-32"/>
     <path d="M 54.40625 22.40625 
L 17.09375 22.40625 
Q 17.703125 9.296875 29.796875 9.296875 
Q 33.90625 9.296875 37.203125 11.5 
Q 40.296875 13.40625 41 16 
L 53.5 16 
Q 47.796875 -1.40625 29.296875 -1.40625 
Q 17.203125 -1.40625 10.046875 6.140625 
Q 2.90625 13.703125 2.90625 25.796875 
Q 2.90625 37.59375 10.25 45.34375 
Q 17.59375 53.09375 29.296875 53.09375 
Q 41.90625 53.09375 48.796875 43.703125 
Q 55.203125 35.09375 54.40625 22.40625 
z
M 17.09375 31.40625 
L 40.203125 31.40625 
Q 38.203125 42.40625 28.90625 42.40625 
Q 22.90625 42.40625 19.703125 38.40625 
Q 17.296875 35.40625 17.09375 31.40625 
z
" id="HelveticaNeueBold-101"/>
     <path d="M 5.40625 0 
L 5.40625 51.703125 
L 18.90625 51.703125 
L 18.90625 44.5 
L 19.203125 44.5 
Q 24.5 53.09375 35 53.09375 
Q 45.703125 53.09375 50.09375 47.296875 
Q 53.90625 42.296875 53.90625 31.796875 
L 53.90625 0 
L 39.703125 0 
L 39.703125 29.203125 
Q 39.703125 41.90625 30.59375 41.90625 
Q 24.796875 41.90625 22.1875 38.40625 
Q 19.59375 34.90625 19.59375 27.09375 
L 19.59375 0 
z
" id="HelveticaNeueBold-110"/>
     <path d="M 23.40625 67.203125 
L 23.40625 51.703125 
L 33.796875 51.703125 
L 33.796875 42.203125 
L 23.40625 42.203125 
L 23.40625 16.59375 
Q 23.40625 13 24.59375 11.796875 
Q 25.796875 10.59375 29.40625 10.59375 
Q 31.796875 10.59375 33.796875 11 
L 33.796875 -0.09375 
Q 30.796875 -0.59375 25.5 -0.59375 
Q 9.203125 -0.59375 9.203125 11.703125 
L 9.203125 42.203125 
L 0.59375 42.203125 
L 0.59375 51.703125 
L 9.203125 51.703125 
L 9.203125 67.203125 
z
" id="HelveticaNeueBold-116"/>
     <path d="M 5.40625 -18.203125 
L 5.40625 51.703125 
L 18.90625 51.703125 
L 18.90625 45.09375 
L 19.09375 45.09375 
Q 24 53.09375 34.5 53.09375 
Q 46 53.09375 52.296875 44.703125 
Q 58 37.203125 58 25.296875 
Q 58 14.203125 52.296875 6.796875 
Q 46.09375 -1.40625 35.296875 -1.40625 
Q 25 -1.40625 19.796875 6.40625 
L 19.59375 6.40625 
L 19.59375 -18.203125 
z
M 31.5 9.296875 
Q 43.796875 9.296875 43.796875 25.703125 
Q 43.796875 32.703125 41 37.09375 
Q 37.703125 42.40625 31.40625 42.40625 
Q 24.90625 42.40625 21.796875 37.203125 
Q 19.09375 32.796875 19.09375 25.703125 
Q 19.09375 18.703125 21.90625 14.40625 
Q 25.09375 9.296875 31.5 9.296875 
z
" id="HelveticaNeueBold-112"/>
     <path d="M 52.5 51.703125 
L 30.90625 -6.5 
Q 28.59375 -12.796875 24.5 -15.5 
Q 20.40625 -18.203125 13.09375 -18.203125 
Q 9.203125 -18.203125 4.40625 -17.703125 
L 4.40625 -6 
Q 11.90625 -6.59375 12.703125 -6.5 
Q 18.203125 -6.09375 18.203125 0 
Q 18.203125 1.703125 17.59375 3.203125 
L -0.59375 51.703125 
L 14.59375 51.703125 
L 26.296875 16.296875 
L 26.5 16.296875 
L 37.796875 51.703125 
z
" id="HelveticaNeueBold-121"/>
     <path d="M 6.09375 0 
L 6.09375 15.40625 
L 21.796875 15.40625 
L 21.796875 0 
z
M 21.796875 50.796875 
L 21.796875 35.40625 
L 6.09375 35.40625 
L 6.09375 50.796875 
z
" id="HelveticaNeueBold-58"/>
     <path d="M 3.296875 18 
L 16.796875 18 
Q 17.5 14.296875 20.046875 11.796875 
Q 22.59375 9.296875 26.203125 9.296875 
Q 33 9.296875 36.59375 17 
Q 39.203125 22.59375 39.59375 30.59375 
L 39.40625 30.796875 
Q 33.90625 23 23.59375 23 
Q 13.90625 23 7.5 30.203125 
Q 2.09375 36.296875 2.09375 45.796875 
Q 2.09375 56.703125 8.9375 64.046875 
Q 15.796875 71.40625 26.59375 71.40625 
Q 41.203125 71.40625 48 59.90625 
Q 53.5 50.703125 53.5 35.203125 
Q 53.5 20.5 47.203125 10.5 
Q 39.796875 -1.40625 26 -1.40625 
Q 16.796875 -1.40625 10.640625 3.75 
Q 4.5 8.90625 3.296875 18 
z
M 27 33.703125 
Q 32.40625 33.703125 35.5 37.59375 
Q 38.296875 41.203125 38.296875 46.703125 
Q 38.296875 51.90625 35.296875 55.59375 
Q 32.09375 59.703125 27 59.703125 
Q 22.203125 59.703125 19.25 55.84375 
Q 16.296875 52 16.296875 46.90625 
Q 16.296875 41.5 18.90625 37.796875 
Q 21.90625 33.703125 27 33.703125 
z
" id="HelveticaNeueBold-57"/>
     <path d="M 51.703125 70 
L 51.703125 57.796875 
Q 41.296875 48.703125 34.796875 31.09375 
Q 29 15.203125 28.796875 0 
L 13.59375 0 
Q 16 31.5 37.09375 56.796875 
L 3.90625 56.796875 
L 3.90625 70 
z
" id="HelveticaNeueBold-55"/>
    </defs>
    <g transform="translate(97.329453 22.282896)scale(0.11 -0.11)">
     <use xlink:href="#HelveticaNeueBold-99"/>
     <use x="57.399994" xlink:href="#HelveticaNeueBold-114"/>
     <use x="96.299988" xlink:href="#HelveticaNeueBold-111"/>
     <use x="157.399979" xlink:href="#HelveticaNeueBold-115"/>
     <use x="211.099976" xlink:href="#HelveticaNeueBold-115"/>
     <use x="264.799973" xlink:href="#HelveticaNeueBold-32"/>
     <use x="292.59996" xlink:href="#HelveticaNeueBold-101"/>
     <use x="349.999954" xlink:href="#HelveticaNeueBold-110"/>
     <use x="409.299942" xlink:href="#HelveticaNeueBold-116"/>
     <use x="444.499939" xlink:href="#HelveticaNeueBold-114"/>
     <use x="483.399933" xlink:href="#HelveticaNeueBold-111"/>
     <use x="544.499924" xlink:href="#HelveticaNeueBold-112"/>
     <use x="605.599915" xlink:href="#HelveticaNeueBold-121"/>
     <use x="657.499908" xlink:href="#HelveticaNeueBold-58"/>
     <use x="685.299896" xlink:href="#HelveticaNeueBold-32"/>
     <use x="713.099884" xlink:href="#HelveticaNeueBold-53"/>
     <use x="768.699875" xlink:href="#HelveticaNeueBold-46"/>
     <use x="796.499863" xlink:href="#HelveticaNeueBold-51"/>
     <use x="852.099854" xlink:href="#HelveticaNeueBold-51"/>
     <use x="907.699844" xlink:href="#HelveticaNeueBold-54"/>
     <use x="963.299835" xlink:href="#HelveticaNeueBold-57"/>
     <use x="1018.899826" xlink:href="#HelveticaNeueBold-48"/>
     <use x="1074.499817" xlink:href="#HelveticaNeueBold-52"/>
     <use x="1130.099808" xlink:href="#HelveticaNeueBold-54"/>
     <use x="1185.699799" xlink:href="#HelveticaNeueBold-48"/>
     <use x="1241.299789" xlink:href="#HelveticaNeueBold-55"/>
     <use x="1296.89978" xlink:href="#HelveticaNeueBold-57"/>
     <use x="1352.499771" xlink:href="#HelveticaNeueBold-50"/>
     <use x="1408.099762" xlink:href="#HelveticaNeueBold-56"/>
     <use x="1463.699753" xlink:href="#HelveticaNeueBold-55"/>
     <use x="1519.299744" xlink:href="#HelveticaNeueBold-57"/>
     <use x="1574.899734" xlink:href="#HelveticaNeueBold-55"/>
    </g>
   </g>
   <g id="legend_1">
    <g id="patch_99">
     <path d="M 246.110854 46.037584 
L 268.110854 46.037584 
L 268.110854 38.337584 
L 246.110854 38.337584 
z
" style="fill:#1f77b4;opacity:0.5;"/>
    </g>
    <g id="text_12">
     <!-- population -->
     <defs>
      <path d="M 53.90625 51.703125 
L 53.90625 0 
L 40.40625 0 
L 40.40625 7.203125 
L 40.09375 7.203125 
Q 34.796875 -1.40625 24.296875 -1.40625 
Q 13.59375 -1.40625 9.203125 4.5 
Q 5.40625 9.40625 5.40625 19.90625 
L 5.40625 51.703125 
L 19.59375 51.703125 
L 19.59375 22.5 
Q 19.59375 9.796875 28.703125 9.796875 
Q 34.5 9.796875 37.09375 13.296875 
Q 39.703125 16.796875 39.703125 24.59375 
L 39.703125 51.703125 
z
" id="HelveticaNeueBold-117"/>
      <path d="M 5.796875 0 
L 5.796875 71.40625 
L 20 71.40625 
L 20 0 
z
" id="HelveticaNeueBold-108"/>
      <path d="M 37.59375 20 
L 37.59375 25.296875 
Q 35.90625 23.796875 30.203125 23 
Q 23.703125 22 21.59375 21.09375 
Q 17.40625 19.203125 17.40625 14.703125 
Q 17.40625 8.09375 26.09375 8.09375 
Q 37.59375 8.09375 37.59375 20 
z
M 19 35.796875 
L 4.796875 35.796875 
Q 5.40625 45 12.90625 49.40625 
Q 19.09375 53.09375 29.09375 53.09375 
Q 51.796875 53.09375 51.796875 38.40625 
L 51.796875 11.5 
Q 51.796875 2.90625 53.59375 0 
L 39.203125 0 
Q 38.296875 2.796875 38.203125 5 
Q 32.09375 -1.40625 20.796875 -1.40625 
Q 13 -1.40625 8.296875 2.40625 
Q 3.203125 6.5 3.203125 14.09375 
Q 3.203125 22 8.703125 25.90625 
Q 12.703125 28.59375 20.796875 29.796875 
Q 32.296875 31.40625 32.5 31.5 
Q 37.59375 32.796875 37.59375 36.59375 
Q 37.59375 40.796875 34.796875 42.40625 
Q 32.796875 43.59375 28.40625 43.59375 
Q 19.703125 43.59375 19 35.796875 
z
" id="HelveticaNeueBold-97"/>
      <path d="M 5.796875 0 
L 5.796875 51.703125 
L 20 51.703125 
L 20 0 
z
M 20 71.40625 
L 20 59.703125 
L 5.796875 59.703125 
L 5.796875 71.40625 
z
" id="HelveticaNeueBold-105"/>
     </defs>
     <g transform="translate(276.910854 46.037584)scale(0.11 -0.11)">
      <use xlink:href="#HelveticaNeueBold-112"/>
      <use x="61.099991" xlink:href="#HelveticaNeueBold-111"/>
      <use x="122.199982" xlink:href="#HelveticaNeueBold-112"/>
      <use x="183.299973" xlink:href="#HelveticaNeueBold-117"/>
      <use x="242.59996" xlink:href="#HelveticaNeueBold-108"/>
      <use x="268.399948" xlink:href="#HelveticaNeueBold-97"/>
      <use x="325.799942" xlink:href="#HelveticaNeueBold-116"/>
      <use x="360.999939" xlink:href="#HelveticaNeueBold-105"/>
      <use x="386.799927" xlink:href="#HelveticaNeueBold-111"/>
      <use x="447.899918" xlink:href="#HelveticaNeueBold-110"/>
     </g>
    </g>
    <g id="patch_100">
     <path d="M 246.110854 61.394615 
L 268.110854 61.394615 
L 268.110854 53.694615 
L 246.110854 53.694615 
z
" style="fill:#ff7f0e;opacity:0.5;"/>
    </g>
    <g id="text_13">
     <!-- customer -->
     <defs>
      <path d="M 5.796875 0 
L 5.796875 51.703125 
L 19.203125 51.703125 
L 19.203125 44.703125 
L 19.40625 44.703125 
Q 25.296875 53.09375 35.203125 53.09375 
Q 46.40625 53.09375 50.296875 44.5 
Q 56 53.09375 65.90625 53.09375 
Q 84.796875 53.09375 84.796875 34.59375 
L 84.796875 0 
L 70.59375 0 
L 70.59375 29.296875 
Q 70.59375 35.59375 69.296875 38.203125 
Q 67.40625 41.90625 61.90625 41.90625 
Q 52.40625 41.90625 52.40625 28.796875 
L 52.40625 0 
L 38.203125 0 
L 38.203125 29 
Q 38.203125 35.5 37.296875 37.703125 
Q 35.5 41.90625 29.59375 41.90625 
Q 26.296875 41.90625 23.796875 39.703125 
Q 20 36.59375 20 30 
L 20 0 
z
" id="HelveticaNeueBold-109"/>
     </defs>
     <g transform="translate(276.910854 61.394615)scale(0.11 -0.11)">
      <use xlink:href="#HelveticaNeueBold-99"/>
      <use x="57.399994" xlink:href="#HelveticaNeueBold-117"/>
      <use x="116.699982" xlink:href="#HelveticaNeueBold-115"/>
      <use x="170.399979" xlink:href="#HelveticaNeueBold-116"/>
      <use x="205.599976" xlink:href="#HelveticaNeueBold-111"/>
      <use x="266.699966" xlink:href="#HelveticaNeueBold-109"/>
      <use x="357.299957" xlink:href="#HelveticaNeueBold-101"/>
      <use x="414.699951" xlink:href="#HelveticaNeueBold-114"/>
     </g>
    </g>
   </g>
  </g>
 </g>
 <defs>
  <clipPath id="pfb3161c0b2">
   <rect height="182.259832" width="311.195926" x="31.403834" y="28.282896"/>
  </clipPath>
 </defs>
</svg>
