<?xml version="1.0" encoding="utf-8" standalone="no"?>
<!DOCTYPE svg PUBLIC "-//W3C//DTD SVG 1.1//EN"
  "http://www.w3.org/Graphics/SVG/1.1/DTD/svg11.dtd">
<!-- Created with matplotlib (https://matplotlib.org/) -->
<svg height="230.4pt" version="1.1" viewBox="0 0 345.6 230.4" width="345.6pt" xmlns="http://www.w3.org/2000/svg" xmlns:xlink="http://www.w3.org/1999/xlink">
 <defs>
  <style type="text/css">
*{stroke-linecap:butt;stroke-linejoin:round;}
  </style>
 </defs>
 <g id="figure_1">
  <g id="patch_1">
   <path d="M 0 230.4 
L 345.6 230.4 
L 345.6 0 
L 0 0 
z
" style="fill:#ffffff;"/>
  </g>
  <g id="axes_1">
   <g id="patch_2">
    <path d="M 29.972584 196.685698 
L 342.59976 196.685698 
L 342.59976 3.00024 
L 29.972584 3.00024 
z
" style="fill:#ffffff;"/>
   </g>
   <g id="patch_3">
    <path clip-path="url(#p579320c7c8)" d="M 29.972584 185.06457 
L 257.919716 185.06457 
L 257.919716 169.569733 
L 29.972584 169.569733 
z
" style="fill:#1f77b4;"/>
   </g>
   <g id="patch_4">
    <path clip-path="url(#p579320c7c8)" d="M 29.972584 165.696024 
L 241.127012 165.696024 
L 241.127012 150.201188 
L 29.972584 150.201188 
z
" style="fill:#1f77b4;"/>
   </g>
   <g id="patch_5">
    <path clip-path="url(#p579320c7c8)" d="M 29.972584 146.327479 
L 257.961527 146.327479 
L 257.961527 130.832642 
L 29.972584 130.832642 
z
" style="fill:#1f77b4;"/>
   </g>
   <g id="patch_6">
    <path clip-path="url(#p579320c7c8)" d="M 29.972584 126.958933 
L 259.886669 126.958933 
L 259.886669 111.464096 
L 29.972584 111.464096 
z
" style="fill:#1f77b4;"/>
   </g>
   <g id="patch_7">
    <path clip-path="url(#p579320c7c8)" d="M 29.972584 107.590387 
L 261.227584 107.590387 
L 261.227584 92.09555 
L 29.972584 92.09555 
z
" style="fill:#1f77b4;"/>
   </g>
   <g id="patch_8">
    <path clip-path="url(#p579320c7c8)" d="M 29.972584 88.221841 
L 260.721296 88.221841 
L 260.721296 72.727005 
L 29.972584 72.727005 
z
" style="fill:#1f77b4;"/>
   </g>
   <g id="patch_9">
    <path clip-path="url(#p579320c7c8)" d="M 29.972584 68.853296 
L 256.348964 68.853296 
L 256.348964 53.358459 
L 29.972584 53.358459 
z
" style="fill:#1f77b4;"/>
   </g>
   <g id="patch_10">
    <path clip-path="url(#p579320c7c8)" d="M 29.972584 49.48475 
L 210.777838 49.48475 
L 210.777838 33.989913 
L 29.972584 33.989913 
z
" style="fill:#1f77b4;"/>
   </g>
   <g id="patch_11">
    <path clip-path="url(#p579320c7c8)" d="M 29.972584 30.116204 
L 258.701126 30.116204 
L 258.701126 14.621367 
L 29.972584 14.621367 
z
" style="fill:#1f77b4;"/>
   </g>
   <g id="matplotlib.axis_1">
    <g id="xtick_1">
     <g id="text_1">
      <!-- 0.0 -->
      <defs>
       <path d="M 2.09375 35.296875 
Q 2.09375 54.40625 9.703125 63.59375 
Q 16.203125 71.40625 27.703125 71.40625 
Q 39.296875 71.40625 45.90625 63.59375 
Q 53.5 54.5 53.5 35.296875 
Q 53.5 -1.40625 27.703125 -1.40625 
Q 2.09375 -1.40625 2.09375 35.296875 
z
M 16.296875 35.296875 
Q 16.296875 25.09375 17.703125 19.796875 
Q 20.296875 10.296875 27.703125 10.296875 
Q 35.203125 10.296875 37.90625 19.796875 
Q 39.296875 25.09375 39.296875 35.296875 
Q 39.296875 59.703125 27.703125 59.703125 
Q 16.296875 59.703125 16.296875 35.296875 
z
" id="HelveticaNeueBold-48"/>
       <path d="M 6 0 
L 6 15.40625 
L 21.703125 15.40625 
L 21.703125 0 
z
" id="HelveticaNeueBold-46"/>
      </defs>
      <g transform="translate(22.328443 211.540385)scale(0.11 -0.11)">
       <use xlink:href="#HelveticaNeueBold-48"/>
       <use x="55.599991" xlink:href="#HelveticaNeueBold-46"/>
       <use x="83.399979" xlink:href="#HelveticaNeueBold-48"/>
      </g>
     </g>
    </g>
    <g id="xtick_2">
     <g id="text_2">
      <!-- 0.2 -->
      <defs>
       <path d="M 17.296875 43.09375 
L 3.703125 43.09375 
Q 3.296875 55.5 10.046875 63.453125 
Q 16.796875 71.40625 29.09375 71.40625 
Q 39.09375 71.40625 45.90625 65.59375 
Q 53.09375 59.40625 53.09375 49.5 
Q 53.09375 40.203125 46.90625 33.59375 
Q 43.796875 30.296875 33.296875 23.5 
Q 24.09375 17.40625 20.40625 12.203125 
L 53.5 12.203125 
L 53.5 0 
L 2.09375 0 
Q 2.203125 10.90625 8.59375 18.703125 
Q 12.703125 23.5 24.203125 31.296875 
Q 32.40625 36.90625 33.90625 38.203125 
Q 38.90625 42.796875 38.90625 48.40625 
Q 38.90625 53.296875 35.953125 56.25 
Q 33 59.203125 28.40625 59.203125 
Q 22.59375 59.203125 19.703125 53.90625 
Q 17.296875 49.59375 17.296875 43.09375 
z
" id="HelveticaNeueBold-50"/>
      </defs>
      <g transform="translate(81.876477 211.540385)scale(0.11 -0.11)">
       <use xlink:href="#HelveticaNeueBold-48"/>
       <use x="55.599991" xlink:href="#HelveticaNeueBold-46"/>
       <use x="83.399979" xlink:href="#HelveticaNeueBold-50"/>
      </g>
     </g>
    </g>
    <g id="xtick_3">
     <g id="text_3">
      <!-- 0.4 -->
      <defs>
       <path d="M 31.203125 0 
L 31.203125 16.203125 
L 1.59375 16.203125 
L 1.59375 29.203125 
L 32 70 
L 44.703125 70 
L 44.703125 27.90625 
L 54 27.90625 
L 54 16.203125 
L 44.703125 16.203125 
L 44.703125 0 
z
M 31.203125 27.90625 
L 31.203125 52.203125 
L 30.90625 52.203125 
L 12.796875 27.90625 
z
" id="HelveticaNeueBold-52"/>
      </defs>
      <g transform="translate(141.42451 211.540385)scale(0.11 -0.11)">
       <use xlink:href="#HelveticaNeueBold-48"/>
       <use x="55.599991" xlink:href="#HelveticaNeueBold-46"/>
       <use x="83.399979" xlink:href="#HelveticaNeueBold-52"/>
      </g>
     </g>
    </g>
    <g id="xtick_4">
     <g id="text_4">
      <!-- 0.6 -->
      <defs>
       <path d="M 52.296875 52 
L 38.796875 52 
Q 38.09375 55.703125 35.546875 58.203125 
Q 33 60.703125 29.40625 60.703125 
Q 22.59375 60.703125 19 53 
Q 16.40625 47.40625 16 39.40625 
L 16.203125 39.203125 
Q 21.703125 47 32 47 
Q 41.703125 47 48.09375 39.796875 
Q 53.5 33.703125 53.5 24.203125 
Q 53.5 13.296875 46.640625 5.9375 
Q 39.796875 -1.40625 29 -1.40625 
Q 14.40625 -1.40625 7.59375 10.09375 
Q 2.09375 19.296875 2.09375 34.796875 
Q 2.09375 49.5 8.40625 59.5 
Q 15.796875 71.40625 29.59375 71.40625 
Q 38.796875 71.40625 44.9375 66.25 
Q 51.09375 61.09375 52.296875 52 
z
M 28.59375 36.296875 
Q 23.203125 36.296875 20.25 32.546875 
Q 17.296875 28.796875 17.296875 23.296875 
Q 17.296875 18.09375 20.296875 14.40625 
Q 23.5 10.296875 28.59375 10.296875 
Q 33.40625 10.296875 36.5 14.296875 
Q 39.296875 18 39.296875 23.09375 
Q 39.296875 28.5 36.703125 32.203125 
Q 33.796875 36.296875 28.59375 36.296875 
z
" id="HelveticaNeueBold-54"/>
      </defs>
      <g transform="translate(200.972544 211.540385)scale(0.11 -0.11)">
       <use xlink:href="#HelveticaNeueBold-48"/>
       <use x="55.599991" xlink:href="#HelveticaNeueBold-46"/>
       <use x="83.399979" xlink:href="#HelveticaNeueBold-54"/>
      </g>
     </g>
    </g>
    <g id="xtick_5">
     <g id="text_5">
      <!-- 0.8 -->
      <defs>
       <path d="M 15.59375 21.203125 
Q 15.59375 15.90625 19.1875 12.59375 
Q 22.796875 9.296875 28 9.296875 
Q 33.203125 9.296875 36.59375 12.59375 
Q 40 15.90625 40 21.09375 
Q 40 26 36.546875 29.140625 
Q 33.09375 32.296875 28 32.296875 
Q 22.59375 32.296875 19.203125 29.5 
Q 15.59375 26.40625 15.59375 21.203125 
z
M 4.296875 52.296875 
Q 4.296875 61.203125 11.796875 66.59375 
Q 18.59375 71.40625 27.90625 71.40625 
Q 39.59375 71.40625 46.09375 64.59375 
Q 51.296875 59.09375 51.296875 52.59375 
Q 51.296875 41.40625 41.09375 37.703125 
L 41.09375 37.703125 
Q 47.296875 36.296875 50.75 31.75 
Q 54.203125 27.203125 54.203125 20.59375 
Q 54.203125 10.203125 46 4.09375 
Q 38.59375 -1.40625 28 -1.40625 
Q 17 -1.40625 9.59375 3.90625 
Q 1.40625 9.796875 1.40625 20.5 
Q 1.40625 27.09375 4.90625 31.640625 
Q 8.40625 36.203125 14.59375 37.703125 
L 14.59375 37.90625 
Q 4.296875 40.796875 4.296875 52.296875 
z
M 17.203125 51 
Q 17.203125 46.59375 20.296875 44.1875 
Q 23.40625 41.796875 27.90625 41.796875 
Q 32.40625 41.796875 35.40625 44.25 
Q 38.40625 46.703125 38.40625 51 
Q 38.40625 54.703125 36.5 57.203125 
Q 33.703125 60.703125 27.90625 60.703125 
Q 23.40625 60.703125 20.296875 58.09375 
Q 17.203125 55.5 17.203125 51 
z
" id="HelveticaNeueBold-56"/>
      </defs>
      <g transform="translate(260.520577 211.540385)scale(0.11 -0.11)">
       <use xlink:href="#HelveticaNeueBold-48"/>
       <use x="55.599991" xlink:href="#HelveticaNeueBold-46"/>
       <use x="83.399979" xlink:href="#HelveticaNeueBold-56"/>
      </g>
     </g>
    </g>
    <g id="xtick_6">
     <g id="text_6">
      <!-- 1.0 -->
      <defs>
       <path d="M 39.203125 70 
L 39.203125 0 
L 25 0 
L 25 45.40625 
L 7.40625 45.40625 
L 7.40625 56.09375 
Q 25.90625 55.703125 27.90625 70 
z
" id="HelveticaNeueBold-49"/>
      </defs>
      <g transform="translate(320.068611 211.540385)scale(0.11 -0.11)">
       <use xlink:href="#HelveticaNeueBold-49"/>
       <use x="55.599991" xlink:href="#HelveticaNeueBold-46"/>
       <use x="83.399979" xlink:href="#HelveticaNeueBold-48"/>
      </g>
     </g>
    </g>
    <g id="text_7">
     <!-- Cross-validated ROC-AUC Score -->
     <defs>
      <path d="M 69.703125 47.40625 
L 54.5 47.40625 
Q 53.796875 52.703125 49.296875 56.296875 
Q 44.796875 59.90625 38.90625 59.90625 
Q 29 59.90625 23.90625 52.296875 
Q 19.5 45.796875 19.5 35.40625 
Q 19.5 25.40625 23.90625 19 
Q 29.09375 11.5 38.90625 11.5 
Q 45.90625 11.5 50.203125 16 
Q 54.203125 20.203125 55.09375 27.5 
L 70.296875 27.5 
Q 69.09375 14.203125 60.546875 6.25 
Q 52 -1.703125 38.90625 -1.703125 
Q 22.796875 -1.703125 13.09375 9.09375 
Q 3.796875 19.40625 3.796875 35.40625 
Q 3.796875 51.796875 13.09375 62.203125 
Q 22.703125 73.09375 38.90625 73.09375 
Q 51.09375 73.09375 59.5 66.40625 
Q 68.296875 59.40625 69.703125 47.40625 
z
" id="HelveticaNeueBold-67"/>
      <path d="M 5.40625 0 
L 5.40625 51.703125 
L 18.90625 51.703125 
L 18.90625 42.09375 
L 19.09375 42.09375 
Q 21 46.90625 25.703125 50 
Q 30.40625 53.09375 35.59375 53.09375 
Q 37.203125 53.09375 38.703125 52.59375 
L 38.703125 39.40625 
Q 36.5 39.90625 33.59375 39.90625 
Q 19.59375 39.90625 19.59375 23.296875 
L 19.59375 0 
z
" id="HelveticaNeueBold-114"/>
      <path d="M 3.796875 25.796875 
Q 3.796875 38.203125 11.09375 45.640625 
Q 18.40625 53.09375 30.5 53.09375 
Q 42.703125 53.09375 50 45.640625 
Q 57.296875 38.203125 57.296875 25.796875 
Q 57.296875 13.5 50 6.046875 
Q 42.703125 -1.40625 30.5 -1.40625 
Q 18.40625 -1.40625 11.09375 6.046875 
Q 3.796875 13.5 3.796875 25.796875 
z
M 18 25.796875 
Q 18 18.703125 20.703125 14.5 
Q 23.90625 9.296875 30.5 9.296875 
Q 43.09375 9.296875 43.09375 25.796875 
Q 43.09375 42.40625 30.5 42.40625 
Q 18 42.40625 18 25.796875 
z
" id="HelveticaNeueBold-111"/>
      <path d="M 2.90625 16.796875 
L 16.40625 16.796875 
Q 16.5 12.40625 19.796875 10.09375 
Q 22.703125 8.09375 27.296875 8.09375 
Q 31 8.09375 33.5 9.5 
Q 36.59375 11.296875 36.59375 14.703125 
Q 36.59375 17.703125 32.40625 19.5 
Q 29.40625 20.796875 20.5 22.703125 
Q 12.90625 24.296875 9.203125 26.90625 
Q 4.09375 30.296875 4.09375 36.5 
Q 4.09375 53.09375 26.59375 53.09375 
Q 48 53.09375 49.40625 36.59375 
L 35.90625 36.59375 
Q 35.40625 43.59375 26.203125 43.59375 
Q 18.296875 43.59375 18.296875 38.796875 
Q 18.296875 35.5 23.296875 33.703125 
Q 23.90625 33.5 34.40625 31.09375 
Q 42.09375 29.296875 45.703125 26.703125 
Q 50.796875 23.09375 50.796875 16.59375 
Q 50.796875 7.203125 43.40625 2.5 
Q 37.296875 -1.40625 27.203125 -1.40625 
Q 17.09375 -1.40625 10.796875 2.59375 
Q 3.296875 7.296875 2.90625 16.796875 
z
" id="HelveticaNeueBold-115"/>
      <path d="M 5.296875 21.203125 
L 5.296875 33.40625 
L 35.40625 33.40625 
L 35.40625 21.203125 
z
" id="HelveticaNeueBold-45"/>
      <path d="M 51.5 51.703125 
L 34 0 
L 18.203125 0 
L 0.5 51.703125 
L 15.40625 51.703125 
L 26.296875 16.40625 
L 26.5 16.40625 
L 37.40625 51.703125 
z
" id="HelveticaNeueBold-118"/>
      <path d="M 37.59375 20 
L 37.59375 25.296875 
Q 35.90625 23.796875 30.203125 23 
Q 23.703125 22 21.59375 21.09375 
Q 17.40625 19.203125 17.40625 14.703125 
Q 17.40625 8.09375 26.09375 8.09375 
Q 37.59375 8.09375 37.59375 20 
z
M 19 35.796875 
L 4.796875 35.796875 
Q 5.40625 45 12.90625 49.40625 
Q 19.09375 53.09375 29.09375 53.09375 
Q 51.796875 53.09375 51.796875 38.40625 
L 51.796875 11.5 
Q 51.796875 2.90625 53.59375 0 
L 39.203125 0 
Q 38.296875 2.796875 38.203125 5 
Q 32.09375 -1.40625 20.796875 -1.40625 
Q 13 -1.40625 8.296875 2.40625 
Q 3.203125 6.5 3.203125 14.09375 
Q 3.203125 22 8.703125 25.90625 
Q 12.703125 28.59375 20.796875 29.796875 
Q 32.296875 31.40625 32.5 31.5 
Q 37.59375 32.796875 37.59375 36.59375 
Q 37.59375 40.796875 34.796875 42.40625 
Q 32.796875 43.59375 28.40625 43.59375 
Q 19.703125 43.59375 19 35.796875 
z
" id="HelveticaNeueBold-97"/>
      <path d="M 5.796875 0 
L 5.796875 71.40625 
L 20 71.40625 
L 20 0 
z
" id="HelveticaNeueBold-108"/>
      <path d="M 5.796875 0 
L 5.796875 51.703125 
L 20 51.703125 
L 20 0 
z
M 20 71.40625 
L 20 59.703125 
L 5.796875 59.703125 
L 5.796875 71.40625 
z
" id="HelveticaNeueBold-105"/>
      <path d="M 42.296875 0 
L 42.296875 6.59375 
L 42.09375 6.59375 
Q 37.40625 -1.40625 26.40625 -1.40625 
Q 15.296875 -1.40625 9 7.09375 
Q 3.203125 14.796875 3.203125 26.296875 
Q 3.203125 37.5 9 44.90625 
Q 15.296875 53.09375 26.09375 53.09375 
Q 36.5 53.09375 41.5 45.40625 
L 41.59375 45.40625 
L 41.59375 71.40625 
L 55.796875 71.40625 
L 55.796875 0 
z
M 42.09375 26 
Q 42.09375 33.09375 39.5 37.40625 
Q 36.296875 42.40625 29.90625 42.40625 
Q 23.40625 42.40625 20.203125 37.296875 
Q 17.40625 33 17.40625 25.90625 
Q 17.40625 19.09375 20.40625 14.59375 
Q 23.703125 9.296875 29.90625 9.296875 
Q 42.09375 9.296875 42.09375 26 
z
" id="HelveticaNeueBold-100"/>
      <path d="M 23.40625 67.203125 
L 23.40625 51.703125 
L 33.796875 51.703125 
L 33.796875 42.203125 
L 23.40625 42.203125 
L 23.40625 16.59375 
Q 23.40625 13 24.59375 11.796875 
Q 25.796875 10.59375 29.40625 10.59375 
Q 31.796875 10.59375 33.796875 11 
L 33.796875 -0.09375 
Q 30.796875 -0.59375 25.5 -0.59375 
Q 9.203125 -0.59375 9.203125 11.703125 
L 9.203125 42.203125 
L 0.59375 42.203125 
L 0.59375 51.703125 
L 9.203125 51.703125 
L 9.203125 67.203125 
z
" id="HelveticaNeueBold-116"/>
      <path d="M 54.40625 22.40625 
L 17.09375 22.40625 
Q 17.703125 9.296875 29.796875 9.296875 
Q 33.90625 9.296875 37.203125 11.5 
Q 40.296875 13.40625 41 16 
L 53.5 16 
Q 47.796875 -1.40625 29.296875 -1.40625 
Q 17.203125 -1.40625 10.046875 6.140625 
Q 2.90625 13.703125 2.90625 25.796875 
Q 2.90625 37.59375 10.25 45.34375 
Q 17.59375 53.09375 29.296875 53.09375 
Q 41.90625 53.09375 48.796875 43.703125 
Q 55.203125 35.09375 54.40625 22.40625 
z
M 17.09375 31.40625 
L 40.203125 31.40625 
Q 38.203125 42.40625 28.90625 42.40625 
Q 22.90625 42.40625 19.703125 38.40625 
Q 17.296875 35.40625 17.09375 31.40625 
z
" id="HelveticaNeueBold-101"/>
      <path id="HelveticaNeueBold-32"/>
      <path d="M 6.90625 0 
L 6.90625 71.40625 
L 45.40625 71.40625 
Q 54.796875 71.40625 60.703125 65.59375 
Q 66.296875 60 66.296875 51.703125 
Q 66.296875 38.40625 55 33.796875 
L 55 33.59375 
Q 64.40625 31.203125 65.40625 16.90625 
Q 65.703125 12.59375 66 8.296875 
Q 66.59375 2.5 68.40625 0 
L 52.703125 0 
Q 51.59375 2.703125 51 8.09375 
Q 50.59375 12.59375 50.203125 17.09375 
Q 49.40625 22.90625 46.75 25.40625 
Q 44.09375 27.90625 38.296875 27.90625 
L 22.59375 27.90625 
L 22.59375 0 
z
M 22.59375 59.203125 
L 22.59375 39.09375 
L 39.796875 39.09375 
Q 50.59375 39.09375 50.59375 49.296875 
Q 50.59375 59.203125 39.796875 59.203125 
z
" id="HelveticaNeueBold-82"/>
      <path d="M 3.796875 35.40625 
Q 3.796875 51.796875 13.09375 62.203125 
Q 22.703125 73.09375 38.90625 73.09375 
Q 55.09375 73.09375 64.703125 62.203125 
Q 74 51.796875 74 35.40625 
Q 74 19.40625 64.703125 9.09375 
Q 55 -1.703125 38.90625 -1.703125 
Q 22.796875 -1.703125 13.09375 9.09375 
Q 3.796875 19.40625 3.796875 35.40625 
z
M 19.5 35.40625 
Q 19.5 25.40625 23.90625 19 
Q 29.09375 11.5 38.90625 11.5 
Q 48.703125 11.5 53.90625 19 
Q 58.296875 25.40625 58.296875 35.40625 
Q 58.296875 45.796875 53.90625 52.296875 
Q 48.796875 59.90625 38.90625 59.90625 
Q 29 59.90625 23.90625 52.296875 
Q 19.5 45.796875 19.5 35.40625 
z
" id="HelveticaNeueBold-79"/>
      <path d="M -0.703125 0 
L 26.40625 71.40625 
L 42.5 71.40625 
L 69.203125 0 
L 52.90625 0 
L 47.5 15.90625 
L 20.796875 15.90625 
L 15.203125 0 
z
M 34.203125 53.796875 
L 24.90625 27.59375 
L 43.40625 27.59375 
L 34.40625 53.796875 
z
" id="HelveticaNeueBold-65"/>
      <path d="M 67.5 71.40625 
L 67.5 27 
Q 67.5 12.796875 59.546875 5.546875 
Q 51.59375 -1.703125 37 -1.703125 
Q 6.59375 -1.703125 6.59375 27 
L 6.59375 71.40625 
L 22.296875 71.40625 
L 22.296875 27 
Q 22.296875 19.90625 24.90625 16.296875 
Q 28.40625 11.5 37 11.5 
Q 45.203125 11.5 48.59375 15.296875 
Q 51.796875 18.796875 51.796875 27 
L 51.796875 71.40625 
z
" id="HelveticaNeueBold-85"/>
      <path d="M 2.40625 23.703125 
L 17.59375 23.703125 
Q 17.59375 17 22.40625 13.5 
Q 26.5 10.5 33.40625 10.5 
Q 38.796875 10.5 42.40625 12.203125 
Q 47.296875 14.5 47.296875 19.40625 
Q 47.296875 25.5 36.296875 28.59375 
Q 17.296875 34 15.796875 34.796875 
Q 4.796875 40.09375 4.796875 51.5 
Q 4.796875 61.796875 13.296875 67.796875 
Q 20.90625 73.09375 31.5 73.09375 
Q 43.796875 73.09375 51.40625 67.796875 
Q 60.09375 61.703125 60.09375 50.09375 
L 44.90625 50.09375 
Q 44.296875 60.90625 30.796875 60.90625 
Q 26.5 60.90625 23.5 59.09375 
Q 20 56.90625 20 52.796875 
Q 20 48.90625 23.90625 47.09375 
Q 26.90625 45.703125 41.296875 42 
Q 49.703125 39.90625 53.796875 37.203125 
Q 62.5 31.59375 62.5 21.203125 
Q 62.5 11 54.90625 4.796875 
Q 46.90625 -1.703125 32.796875 -1.703125 
Q 19.90625 -1.703125 11.59375 4.40625 
Q 2.296875 11.296875 2.40625 23.703125 
z
" id="HelveticaNeueBold-83"/>
      <path d="M 54.5 33.5 
L 40.59375 33.5 
Q 39.203125 42.40625 30.09375 42.40625 
Q 23.90625 42.40625 20.59375 36.90625 
Q 18 32.296875 18 25.59375 
Q 18 19.09375 20.59375 14.703125 
Q 23.703125 9.296875 29.796875 9.296875 
Q 39.59375 9.296875 41.09375 19.796875 
L 54.796875 19.796875 
Q 53.5 9.59375 46.84375 4.09375 
Q 40.203125 -1.40625 29.90625 -1.40625 
Q 18.296875 -1.40625 11.046875 6 
Q 3.796875 13.40625 3.796875 25.09375 
Q 3.796875 37.5 10.703125 45.09375 
Q 17.90625 53.09375 30.203125 53.09375 
Q 40 53.09375 46.59375 48.296875 
Q 53.90625 42.90625 54.5 33.5 
z
" id="HelveticaNeueBold-99"/>
     </defs>
     <g transform="translate(99.815 225.397416)scale(0.11 -0.11)">
      <use xlink:href="#HelveticaNeueBold-67"/>
      <use x="74.099991" xlink:href="#HelveticaNeueBold-114"/>
      <use x="112.999985" xlink:href="#HelveticaNeueBold-111"/>
      <use x="174.099976" xlink:href="#HelveticaNeueBold-115"/>
      <use x="227.799973" xlink:href="#HelveticaNeueBold-115"/>
      <use x="281.499969" xlink:href="#HelveticaNeueBold-45"/>
      <use x="322.199966" xlink:href="#HelveticaNeueBold-118"/>
      <use x="374.199951" xlink:href="#HelveticaNeueBold-97"/>
      <use x="431.599945" xlink:href="#HelveticaNeueBold-108"/>
      <use x="457.399933" xlink:href="#HelveticaNeueBold-105"/>
      <use x="483.199921" xlink:href="#HelveticaNeueBold-100"/>
      <use x="544.299911" xlink:href="#HelveticaNeueBold-97"/>
      <use x="601.699905" xlink:href="#HelveticaNeueBold-116"/>
      <use x="636.899902" xlink:href="#HelveticaNeueBold-101"/>
      <use x="694.299896" xlink:href="#HelveticaNeueBold-100"/>
      <use x="755.399887" xlink:href="#HelveticaNeueBold-32"/>
      <use x="783.199875" xlink:href="#HelveticaNeueBold-82"/>
      <use x="855.399857" xlink:href="#HelveticaNeueBold-79"/>
      <use x="933.199844" xlink:href="#HelveticaNeueBold-67"/>
      <use x="1007.299835" xlink:href="#HelveticaNeueBold-45"/>
      <use x="1047.999832" xlink:href="#HelveticaNeueBold-65"/>
      <use x="1116.499817" xlink:href="#HelveticaNeueBold-85"/>
      <use x="1190.599808" xlink:href="#HelveticaNeueBold-67"/>
      <use x="1264.699799" xlink:href="#HelveticaNeueBold-32"/>
      <use x="1292.499786" xlink:href="#HelveticaNeueBold-83"/>
      <use x="1357.39978" xlink:href="#HelveticaNeueBold-99"/>
      <use x="1414.799774" xlink:href="#HelveticaNeueBold-111"/>
      <use x="1475.899765" xlink:href="#HelveticaNeueBold-114"/>
      <use x="1514.799759" xlink:href="#HelveticaNeueBold-101"/>
     </g>
    </g>
   </g>
   <g id="matplotlib.axis_2">
    <g id="ytick_1">
     <g id="text_8">
      <!-- 0 -->
      <g transform="translate(16.857271 181.244495)scale(0.11 -0.11)">
       <use xlink:href="#HelveticaNeueBold-48"/>
      </g>
     </g>
    </g>
    <g id="ytick_2">
     <g id="text_9">
      <!-- 2 -->
      <g transform="translate(16.857271 142.507404)scale(0.11 -0.11)">
       <use xlink:href="#HelveticaNeueBold-50"/>
      </g>
     </g>
    </g>
    <g id="ytick_3">
     <g id="text_10">
      <!-- 4 -->
      <g transform="translate(16.857271 103.770313)scale(0.11 -0.11)">
       <use xlink:href="#HelveticaNeueBold-52"/>
      </g>
     </g>
    </g>
    <g id="ytick_4">
     <g id="text_11">
      <!-- 6 -->
      <g transform="translate(16.857271 65.033221)scale(0.11 -0.11)">
       <use xlink:href="#HelveticaNeueBold-54"/>
      </g>
     </g>
    </g>
    <g id="ytick_5">
     <g id="text_12">
      <!-- 8 -->
      <g transform="translate(16.857271 26.29613)scale(0.11 -0.11)">
       <use xlink:href="#HelveticaNeueBold-56"/>
      </g>
     </g>
    </g>
    <g id="text_13">
     <!-- Data Tranformation Identifier -->
     <defs>
      <path d="M 6.90625 0 
L 6.90625 71.40625 
L 37.703125 71.40625 
Q 52.203125 71.40625 60.796875 62.59375 
Q 70.09375 53.296875 70.09375 36.09375 
Q 70.09375 19.90625 62.09375 10.296875 
Q 53.5 0 37.703125 0 
z
M 22.59375 58.203125 
L 22.59375 13.203125 
L 36.59375 13.203125 
Q 44.203125 13.203125 48.90625 18 
Q 54.40625 23.59375 54.40625 34.59375 
Q 54.40625 46.09375 50 51.796875 
Q 45 58.203125 33.796875 58.203125 
z
" id="HelveticaNeueBold-68"/>
      <path d="M 22.703125 0 
L 22.703125 58.203125 
L 1.296875 58.203125 
L 1.296875 71.40625 
L 59.796875 71.40625 
L 59.796875 58.203125 
L 38.40625 58.203125 
L 38.40625 0 
z
" id="HelveticaNeueBold-84"/>
      <path d="M 5.40625 0 
L 5.40625 51.703125 
L 18.90625 51.703125 
L 18.90625 44.5 
L 19.203125 44.5 
Q 24.5 53.09375 35 53.09375 
Q 45.703125 53.09375 50.09375 47.296875 
Q 53.90625 42.296875 53.90625 31.796875 
L 53.90625 0 
L 39.703125 0 
L 39.703125 29.203125 
Q 39.703125 41.90625 30.59375 41.90625 
Q 24.796875 41.90625 22.1875 38.40625 
Q 19.59375 34.90625 19.59375 27.09375 
L 19.59375 0 
z
" id="HelveticaNeueBold-110"/>
      <path d="M 8.5 0 
L 8.5 42.203125 
L 0 42.203125 
L 0 51.703125 
L 8.5 51.703125 
L 8.5 55.703125 
Q 8.5 62.796875 12.953125 67.09375 
Q 17.40625 71.40625 25.796875 71.40625 
Q 27.203125 71.40625 29.59375 71.203125 
Q 32.59375 71 33.296875 71 
L 33.296875 60.40625 
Q 30.796875 60.703125 28.09375 60.703125 
Q 22.703125 60.703125 22.703125 54.796875 
L 22.703125 51.703125 
L 32.5 51.703125 
L 32.5 42.203125 
L 22.703125 42.203125 
L 22.703125 0 
z
" id="HelveticaNeueBold-102"/>
      <path d="M 5.796875 0 
L 5.796875 51.703125 
L 19.203125 51.703125 
L 19.203125 44.703125 
L 19.40625 44.703125 
Q 25.296875 53.09375 35.203125 53.09375 
Q 46.40625 53.09375 50.296875 44.5 
Q 56 53.09375 65.90625 53.09375 
Q 84.796875 53.09375 84.796875 34.59375 
L 84.796875 0 
L 70.59375 0 
L 70.59375 29.296875 
Q 70.59375 35.59375 69.296875 38.203125 
Q 67.40625 41.90625 61.90625 41.90625 
Q 52.40625 41.90625 52.40625 28.796875 
L 52.40625 0 
L 38.203125 0 
L 38.203125 29 
Q 38.203125 35.5 37.296875 37.703125 
Q 35.5 41.90625 29.59375 41.90625 
Q 26.296875 41.90625 23.796875 39.703125 
Q 20 36.59375 20 30 
L 20 0 
z
" id="HelveticaNeueBold-109"/>
      <path d="M 6.90625 0 
L 6.90625 71.40625 
L 22.59375 71.40625 
L 22.59375 0 
z
" id="HelveticaNeueBold-73"/>
     </defs>
     <g transform="translate(10.854927 175.896797)rotate(-90)scale(0.11 -0.11)">
      <use xlink:href="#HelveticaNeueBold-68"/>
      <use x="74.099991" xlink:href="#HelveticaNeueBold-97"/>
      <use x="131.499985" xlink:href="#HelveticaNeueBold-116"/>
      <use x="166.699982" xlink:href="#HelveticaNeueBold-97"/>
      <use x="224.099976" xlink:href="#HelveticaNeueBold-32"/>
      <use x="251.899963" xlink:href="#HelveticaNeueBold-84"/>
      <use x="312.999954" xlink:href="#HelveticaNeueBold-114"/>
      <use x="351.899948" xlink:href="#HelveticaNeueBold-97"/>
      <use x="409.299942" xlink:href="#HelveticaNeueBold-110"/>
      <use x="468.59993" xlink:href="#HelveticaNeueBold-102"/>
      <use x="501.899918" xlink:href="#HelveticaNeueBold-111"/>
      <use x="562.999908" xlink:href="#HelveticaNeueBold-114"/>
      <use x="601.899902" xlink:href="#HelveticaNeueBold-109"/>
      <use x="692.499893" xlink:href="#HelveticaNeueBold-97"/>
      <use x="749.899887" xlink:href="#HelveticaNeueBold-116"/>
      <use x="785.099884" xlink:href="#HelveticaNeueBold-105"/>
      <use x="810.899872" xlink:href="#HelveticaNeueBold-111"/>
      <use x="871.999863" xlink:href="#HelveticaNeueBold-110"/>
      <use x="931.29985" xlink:href="#HelveticaNeueBold-32"/>
      <use x="959.099838" xlink:href="#HelveticaNeueBold-73"/>
      <use x="988.599823" xlink:href="#HelveticaNeueBold-100"/>
      <use x="1049.699814" xlink:href="#HelveticaNeueBold-101"/>
      <use x="1107.099808" xlink:href="#HelveticaNeueBold-110"/>
      <use x="1166.399796" xlink:href="#HelveticaNeueBold-116"/>
      <use x="1201.599792" xlink:href="#HelveticaNeueBold-105"/>
      <use x="1227.39978" xlink:href="#HelveticaNeueBold-102"/>
      <use x="1260.699768" xlink:href="#HelveticaNeueBold-105"/>
      <use x="1286.499756" xlink:href="#HelveticaNeueBold-101"/>
      <use x="1343.89975" xlink:href="#HelveticaNeueBold-114"/>
     </g>
    </g>
   </g>
   <g id="line2d_1">
    <path clip-path="url(#p579320c7c8)" d="M 29.972584 216.054243 
L 327.712752 216.054243 
" style="fill:none;stroke:#000000;stroke-dasharray:1.85,0.8;stroke-dashoffset:0;stroke-opacity:0.3;stroke-width:0.5;"/>
   </g>
   <g id="line2d_2">
    <path clip-path="url(#p579320c7c8)" d="M 29.972584 177.317152 
L 327.712752 177.317152 
" style="fill:none;stroke:#000000;stroke-dasharray:1.85,0.8;stroke-dashoffset:0;stroke-opacity:0.3;stroke-width:0.5;"/>
   </g>
   <g id="line2d_3">
    <path clip-path="url(#p579320c7c8)" d="M 29.972584 138.58006 
L 327.712752 138.58006 
" style="fill:none;stroke:#000000;stroke-dasharray:1.85,0.8;stroke-dashoffset:0;stroke-opacity:0.3;stroke-width:0.5;"/>
   </g>
   <g id="line2d_4">
    <path clip-path="url(#p579320c7c8)" d="M 29.972584 99.842969 
L 327.712752 99.842969 
" style="fill:none;stroke:#000000;stroke-dasharray:1.85,0.8;stroke-dashoffset:0;stroke-opacity:0.3;stroke-width:0.5;"/>
   </g>
   <g id="line2d_5">
    <path clip-path="url(#p579320c7c8)" d="M 29.972584 61.105877 
L 327.712752 61.105877 
" style="fill:none;stroke:#000000;stroke-dasharray:1.85,0.8;stroke-dashoffset:0;stroke-opacity:0.3;stroke-width:0.5;"/>
   </g>
   <g id="line2d_6">
    <path clip-path="url(#p579320c7c8)" d="M 29.972584 22.368786 
L 327.712752 22.368786 
" style="fill:none;stroke:#000000;stroke-dasharray:1.85,0.8;stroke-dashoffset:0;stroke-opacity:0.3;stroke-width:0.5;"/>
   </g>
   <g id="line2d_7">
    <path clip-path="url(#p579320c7c8)" style="fill:none;stroke:#000000;stroke-dasharray:1.85,0.8;stroke-dashoffset:0;stroke-opacity:0.3;stroke-width:0.5;"/>
   </g>
   <g id="line2d_8">
    <path clip-path="url(#p579320c7c8)" d="M 29.972584 216.054243 
L 29.972584 -1 
" style="fill:none;stroke:#000000;stroke-dasharray:1.85,0.8;stroke-dashoffset:0;stroke-opacity:0.3;stroke-width:0.5;"/>
   </g>
   <g id="line2d_9">
    <path clip-path="url(#p579320c7c8)" d="M 89.520617 216.054243 
L 89.520617 -1 
" style="fill:none;stroke:#000000;stroke-dasharray:1.85,0.8;stroke-dashoffset:0;stroke-opacity:0.3;stroke-width:0.5;"/>
   </g>
   <g id="line2d_10">
    <path clip-path="url(#p579320c7c8)" d="M 149.068651 216.054243 
L 149.068651 -1 
" style="fill:none;stroke:#000000;stroke-dasharray:1.85,0.8;stroke-dashoffset:0;stroke-opacity:0.3;stroke-width:0.5;"/>
   </g>
   <g id="line2d_11">
    <path clip-path="url(#p579320c7c8)" d="M 208.616684 216.054243 
L 208.616684 -1 
" style="fill:none;stroke:#000000;stroke-dasharray:1.85,0.8;stroke-dashoffset:0;stroke-opacity:0.3;stroke-width:0.5;"/>
   </g>
   <g id="line2d_12">
    <path clip-path="url(#p579320c7c8)" d="M 268.164718 216.054243 
L 268.164718 -1 
" style="fill:none;stroke:#000000;stroke-dasharray:1.85,0.8;stroke-dashoffset:0;stroke-opacity:0.3;stroke-width:0.5;"/>
   </g>
   <g id="line2d_13">
    <path clip-path="url(#p579320c7c8)" d="M 327.712752 216.054243 
L 327.712752 -1 
" style="fill:none;stroke:#000000;stroke-dasharray:1.85,0.8;stroke-dashoffset:0;stroke-opacity:0.3;stroke-width:0.5;"/>
   </g>
  </g>
 </g>
 <defs>
  <clipPath id="p579320c7c8">
   <rect height="193.685457" width="312.627176" x="29.972584" y="3.00024"/>
  </clipPath>
 </defs>
</svg>
