<?xml version="1.0" encoding="utf-8" standalone="no"?>
<!DOCTYPE svg PUBLIC "-//W3C//DTD SVG 1.1//EN"
  "http://www.w3.org/Graphics/SVG/1.1/DTD/svg11.dtd">
<!-- Created with matplotlib (https://matplotlib.org/) -->
<svg height="230.4pt" version="1.1" viewBox="0 0 345.6 230.4" width="345.6pt" xmlns="http://www.w3.org/2000/svg" xmlns:xlink="http://www.w3.org/1999/xlink">
 <defs>
  <style type="text/css">
*{stroke-linecap:butt;stroke-linejoin:round;}
  </style>
 </defs>
 <g id="figure_1">
  <g id="patch_1">
   <path d="M 0 230.4 
L 345.6 230.4 
L 345.6 0 
L 0 0 
z
" style="fill:none;"/>
  </g>
  <g id="axes_1">
   <g id="patch_2">
    <path d="M 70.919963 210.542729 
L 274.680037 210.542729 
L 274.680037 3.00024 
L 70.919963 3.00024 
z
" style="fill:none;"/>
   </g>
   <g id="PathCollection_1">
    <defs>
     <path d="M 0 4 
C 1.060812 4 2.078319 3.578535 2.828427 2.828427 
C 3.578535 2.078319 4 1.060812 4 0 
C 4 -1.060812 3.578535 -2.078319 2.828427 -2.828427 
C 2.078319 -3.578535 1.060812 -4 0 -4 
C -1.060812 -4 -2.078319 -3.578535 -2.828427 -2.828427 
C -3.578535 -2.078319 -4 -1.060812 -4 0 
C -4 1.060812 -3.578535 2.078319 -2.828427 2.828427 
C -2.078319 3.578535 -1.060812 4 0 4 
z
" id="C0_0_d25e41cbc4"/>
    </defs>
    <g clip-path="url(#p4d673af5af)">
     <use style="fill:#a60628;fill-opacity:0.8;stroke:#a60628;stroke-opacity:0.8;" x="252.7419" xlink:href="#C0_0_d25e41cbc4" y="14.382984"/>
    </g>
    <g clip-path="url(#p4d673af5af)">
     <use style="fill:#a60628;fill-opacity:0.8;stroke:#a60628;stroke-opacity:0.8;" x="255.431413" xlink:href="#C0_0_d25e41cbc4" y="16.267617"/>
    </g>
    <g clip-path="url(#p4d673af5af)">
     <use style="fill:#a60628;fill-opacity:0.8;stroke:#a60628;stroke-opacity:0.8;" x="182.145551" xlink:href="#C0_0_d25e41cbc4" y="29.941674"/>
    </g>
    <g clip-path="url(#p4d673af5af)">
     <use style="fill:#a60628;fill-opacity:0.8;stroke:#a60628;stroke-opacity:0.8;" x="254.735433" xlink:href="#C0_0_d25e41cbc4" y="19.258406"/>
    </g>
    <g clip-path="url(#p4d673af5af)">
     <use style="fill:#348abd;fill-opacity:0.8;stroke:#348abd;stroke-opacity:0.8;" x="90.699885" xlink:href="#C0_0_d25e41cbc4" y="196.526843"/>
    </g>
    <g clip-path="url(#p4d673af5af)">
     <use style="fill:#348abd;fill-opacity:0.8;stroke:#348abd;stroke-opacity:0.8;" x="174.86031" xlink:href="#C0_0_d25e41cbc4" y="199.159984"/>
    </g>
    <g clip-path="url(#p4d673af5af)">
     <use style="fill:#348abd;fill-opacity:0.8;stroke:#348abd;stroke-opacity:0.8;" x="170.407834" xlink:href="#C0_0_d25e41cbc4" y="110.979429"/>
    </g>
    <g clip-path="url(#p4d673af5af)">
     <use style="fill:#348abd;fill-opacity:0.8;stroke:#348abd;stroke-opacity:0.8;" x="171.066434" xlink:href="#C0_0_d25e41cbc4" y="104.887759"/>
    </g>
    <g clip-path="url(#p4d673af5af)">
     <use style="fill:#348abd;fill-opacity:0.8;stroke:#348abd;stroke-opacity:0.8;" x="86.143635" xlink:href="#C0_0_d25e41cbc4" y="188.136265"/>
    </g>
    <g clip-path="url(#p4d673af5af)">
     <use style="fill:#348abd;fill-opacity:0.8;stroke:#348abd;stroke-opacity:0.8;" x="96.387834" xlink:href="#C0_0_d25e41cbc4" y="197.752333"/>
    </g>
    <g clip-path="url(#p4d673af5af)">
     <use style="fill:#348abd;fill-opacity:0.8;stroke:#348abd;stroke-opacity:0.8;" x="169.892496" xlink:href="#C0_0_d25e41cbc4" y="107.959639"/>
    </g>
    <g clip-path="url(#p4d673af5af)">
     <use style="fill:#348abd;fill-opacity:0.8;stroke:#348abd;stroke-opacity:0.8;" x="178.513918" xlink:href="#C0_0_d25e41cbc4" y="114.155514"/>
    </g>
    <g clip-path="url(#p4d673af5af)">
     <use style="fill:#a60628;fill-opacity:0.8;stroke:#a60628;stroke-opacity:0.8;" x="264.152417" xlink:href="#C0_0_d25e41cbc4" y="107.471889"/>
    </g>
    <g clip-path="url(#p4d673af5af)">
     <use style="fill:#348abd;fill-opacity:0.8;stroke:#348abd;stroke-opacity:0.8;" x="81.447583" xlink:href="#C0_0_d25e41cbc4" y="20.213917"/>
    </g>
    <g clip-path="url(#p4d673af5af)">
     <use style="fill:#348abd;fill-opacity:0.8;stroke:#348abd;stroke-opacity:0.8;" x="87.719712" xlink:href="#C0_0_d25e41cbc4" y="189.376517"/>
    </g>
    <g clip-path="url(#p4d673af5af)">
     <use style="fill:#348abd;fill-opacity:0.8;stroke:#348abd;stroke-opacity:0.8;" x="166.548486" xlink:href="#C0_0_d25e41cbc4" y="105.118679"/>
    </g>
    <g clip-path="url(#p4d673af5af)">
     <use style="fill:#a60628;fill-opacity:0.8;stroke:#a60628;stroke-opacity:0.8;" x="263.108048" xlink:href="#C0_0_d25e41cbc4" y="16.90298"/>
    </g>
    <g clip-path="url(#p4d673af5af)">
     <use style="fill:#a60628;fill-opacity:0.8;stroke:#a60628;stroke-opacity:0.8;" x="258.069241" xlink:href="#C0_0_d25e41cbc4" y="23.827257"/>
    </g>
    <g clip-path="url(#p4d673af5af)">
     <use style="fill:#a60628;fill-opacity:0.8;stroke:#a60628;stroke-opacity:0.8;" x="258.485239" xlink:href="#C0_0_d25e41cbc4" y="113.620555"/>
    </g>
    <g clip-path="url(#p4d673af5af)">
     <use style="fill:#348abd;fill-opacity:0.8;stroke:#348abd;stroke-opacity:0.8;" x="257.077067" xlink:href="#C0_0_d25e41cbc4" y="190.191362"/>
    </g>
    <g clip-path="url(#p4d673af5af)">
     <use style="fill:#348abd;fill-opacity:0.8;stroke:#348abd;stroke-opacity:0.8;" x="82.717458" xlink:href="#C0_0_d25e41cbc4" y="18.713175"/>
    </g>
    <g clip-path="url(#p4d673af5af)">
     <use style="fill:#348abd;fill-opacity:0.8;stroke:#348abd;stroke-opacity:0.8;" x="97.656888" xlink:href="#C0_0_d25e41cbc4" y="101.170958"/>
    </g>
    <g clip-path="url(#p4d673af5af)">
     <use style="fill:#348abd;fill-opacity:0.8;stroke:#348abd;stroke-opacity:0.8;" x="177.417364" xlink:href="#C0_0_d25e41cbc4" y="104.943203"/>
    </g>
    <g clip-path="url(#p4d673af5af)">
     <use style="fill:#348abd;fill-opacity:0.8;stroke:#348abd;stroke-opacity:0.8;" x="167.26873" xlink:href="#C0_0_d25e41cbc4" y="114.712968"/>
    </g>
    <g clip-path="url(#p4d673af5af)">
     <use style="fill:#348abd;fill-opacity:0.8;stroke:#348abd;stroke-opacity:0.8;" x="95.003794" xlink:href="#C0_0_d25e41cbc4" y="185.257936"/>
    </g>
    <g clip-path="url(#p4d673af5af)">
     <use style="fill:#a60628;fill-opacity:0.8;stroke:#a60628;stroke-opacity:0.8;" x="174.714785" xlink:href="#C0_0_d25e41cbc4" y="25.289885"/>
    </g>
    <g clip-path="url(#p4d673af5af)">
     <use style="fill:#a60628;fill-opacity:0.8;stroke:#a60628;stroke-opacity:0.8;" x="252.201454" xlink:href="#C0_0_d25e41cbc4" y="27.710895"/>
    </g>
    <g clip-path="url(#p4d673af5af)">
     <use style="fill:#348abd;fill-opacity:0.8;stroke:#348abd;stroke-opacity:0.8;" x="175.097349" xlink:href="#C0_0_d25e41cbc4" y="186.599307"/>
    </g>
    <g clip-path="url(#p4d673af5af)">
     <use style="fill:#a60628;fill-opacity:0.8;stroke:#a60628;stroke-opacity:0.8;" x="261.461017" xlink:href="#C0_0_d25e41cbc4" y="110.731799"/>
    </g>
   </g>
   <g id="matplotlib.axis_1">
    <g id="xtick_1">
     <g id="text_1">
      <!-- yellow -->
      <defs>
       <path d="M 52.5 51.703125 
L 30.90625 -6.5 
Q 28.59375 -12.796875 24.5 -15.5 
Q 20.40625 -18.203125 13.09375 -18.203125 
Q 9.203125 -18.203125 4.40625 -17.703125 
L 4.40625 -6 
Q 11.90625 -6.59375 12.703125 -6.5 
Q 18.203125 -6.09375 18.203125 0 
Q 18.203125 1.703125 17.59375 3.203125 
L -0.59375 51.703125 
L 14.59375 51.703125 
L 26.296875 16.296875 
L 26.5 16.296875 
L 37.796875 51.703125 
z
" id="HelveticaNeueBold-121"/>
       <path d="M 54.40625 22.40625 
L 17.09375 22.40625 
Q 17.703125 9.296875 29.796875 9.296875 
Q 33.90625 9.296875 37.203125 11.5 
Q 40.296875 13.40625 41 16 
L 53.5 16 
Q 47.796875 -1.40625 29.296875 -1.40625 
Q 17.203125 -1.40625 10.046875 6.140625 
Q 2.90625 13.703125 2.90625 25.796875 
Q 2.90625 37.59375 10.25 45.34375 
Q 17.59375 53.09375 29.296875 53.09375 
Q 41.90625 53.09375 48.796875 43.703125 
Q 55.203125 35.09375 54.40625 22.40625 
z
M 17.09375 31.40625 
L 40.203125 31.40625 
Q 38.203125 42.40625 28.90625 42.40625 
Q 22.90625 42.40625 19.703125 38.40625 
Q 17.296875 35.40625 17.09375 31.40625 
z
" id="HelveticaNeueBold-101"/>
       <path d="M 5.796875 0 
L 5.796875 71.40625 
L 20 71.40625 
L 20 0 
z
" id="HelveticaNeueBold-108"/>
       <path d="M 3.796875 25.796875 
Q 3.796875 38.203125 11.09375 45.640625 
Q 18.40625 53.09375 30.5 53.09375 
Q 42.703125 53.09375 50 45.640625 
Q 57.296875 38.203125 57.296875 25.796875 
Q 57.296875 13.5 50 6.046875 
Q 42.703125 -1.40625 30.5 -1.40625 
Q 18.40625 -1.40625 11.09375 6.046875 
Q 3.796875 13.5 3.796875 25.796875 
z
M 18 25.796875 
Q 18 18.703125 20.703125 14.5 
Q 23.90625 9.296875 30.5 9.296875 
Q 43.09375 9.296875 43.09375 25.796875 
Q 43.09375 42.40625 30.5 42.40625 
Q 18 42.40625 18 25.796875 
z
" id="HelveticaNeueBold-111"/>
       <path d="M 80.796875 51.703125 
L 64.5 0 
L 49.90625 0 
L 40.703125 34.703125 
L 40.5 34.703125 
L 31.703125 0 
L 17 0 
L 0.59375 51.703125 
L 15.59375 51.703125 
L 25.09375 16.59375 
L 25.296875 16.59375 
L 33.90625 51.703125 
L 47.703125 51.703125 
L 56.5 16.703125 
L 56.703125 16.703125 
L 66.203125 51.703125 
z
" id="HelveticaNeueBold-119"/>
      </defs>
      <g transform="translate(72.675902 225.397416)scale(0.11 -0.11)">
       <use xlink:href="#HelveticaNeueBold-121"/>
       <use x="51.899994" xlink:href="#HelveticaNeueBold-101"/>
       <use x="109.299988" xlink:href="#HelveticaNeueBold-108"/>
       <use x="135.099976" xlink:href="#HelveticaNeueBold-108"/>
       <use x="160.899963" xlink:href="#HelveticaNeueBold-111"/>
       <use x="221.999954" xlink:href="#HelveticaNeueBold-119"/>
      </g>
     </g>
    </g>
    <g id="xtick_2">
     <g id="text_2">
      <!-- red -->
      <defs>
       <path d="M 5.40625 0 
L 5.40625 51.703125 
L 18.90625 51.703125 
L 18.90625 42.09375 
L 19.09375 42.09375 
Q 21 46.90625 25.703125 50 
Q 30.40625 53.09375 35.59375 53.09375 
Q 37.203125 53.09375 38.703125 52.59375 
L 38.703125 39.40625 
Q 36.5 39.90625 33.59375 39.90625 
Q 19.59375 39.90625 19.59375 23.296875 
L 19.59375 0 
z
" id="HelveticaNeueBold-114"/>
       <path d="M 42.296875 0 
L 42.296875 6.59375 
L 42.09375 6.59375 
Q 37.40625 -1.40625 26.40625 -1.40625 
Q 15.296875 -1.40625 9 7.09375 
Q 3.203125 14.796875 3.203125 26.296875 
Q 3.203125 37.5 9 44.90625 
Q 15.296875 53.09375 26.09375 53.09375 
Q 36.5 53.09375 41.5 45.40625 
L 41.59375 45.40625 
L 41.59375 71.40625 
L 55.796875 71.40625 
L 55.796875 0 
z
M 42.09375 26 
Q 42.09375 33.09375 39.5 37.40625 
Q 36.296875 42.40625 29.90625 42.40625 
Q 23.40625 42.40625 20.203125 37.296875 
Q 17.40625 33 17.40625 25.90625 
Q 17.40625 19.09375 20.40625 14.59375 
Q 23.703125 9.296875 29.90625 9.296875 
Q 42.09375 9.296875 42.09375 26 
z
" id="HelveticaNeueBold-100"/>
      </defs>
      <g transform="translate(165.463793 225.397416)scale(0.11 -0.11)">
       <use xlink:href="#HelveticaNeueBold-114"/>
       <use x="38.899994" xlink:href="#HelveticaNeueBold-101"/>
       <use x="96.299988" xlink:href="#HelveticaNeueBold-100"/>
      </g>
     </g>
    </g>
    <g id="xtick_3">
     <g id="text_3">
      <!-- blue -->
      <defs>
       <path d="M 5.40625 0 
L 5.40625 71.40625 
L 19.59375 71.40625 
L 19.59375 45.40625 
L 19.796875 45.40625 
Q 24.90625 53.09375 36.09375 53.09375 
Q 44.703125 53.09375 50.703125 46.59375 
Q 57.5 39.09375 57.5 25.90625 
Q 57.5 12.59375 50.703125 5.09375 
Q 44.703125 -1.40625 36.09375 -1.40625 
Q 23.5 -1.40625 19.09375 6.59375 
L 18.90625 6.59375 
L 18.90625 0 
z
M 43.296875 25.796875 
Q 43.296875 32.90625 40.40625 37.40625 
Q 37.203125 42.40625 31.203125 42.40625 
Q 25.203125 42.40625 22 37.40625 
Q 19.09375 32.90625 19.09375 25.796875 
Q 19.09375 18.796875 22 14.296875 
Q 25.296875 9.296875 31.203125 9.296875 
Q 37.09375 9.296875 40.40625 14.296875 
Q 43.296875 18.796875 43.296875 25.796875 
z
" id="HelveticaNeueBold-98"/>
       <path d="M 53.90625 51.703125 
L 53.90625 0 
L 40.40625 0 
L 40.40625 7.203125 
L 40.09375 7.203125 
Q 34.796875 -1.40625 24.296875 -1.40625 
Q 13.59375 -1.40625 9.203125 4.5 
Q 5.40625 9.40625 5.40625 19.90625 
L 5.40625 51.703125 
L 19.59375 51.703125 
L 19.59375 22.5 
Q 19.59375 9.796875 28.703125 9.796875 
Q 34.5 9.796875 37.09375 13.296875 
Q 39.703125 16.796875 39.703125 24.59375 
L 39.703125 51.703125 
z
" id="HelveticaNeueBold-117"/>
      </defs>
      <g transform="translate(247.681371 225.397416)scale(0.11 -0.11)">
       <use xlink:href="#HelveticaNeueBold-98"/>
       <use x="61.099991" xlink:href="#HelveticaNeueBold-108"/>
       <use x="86.899979" xlink:href="#HelveticaNeueBold-117"/>
       <use x="146.199966" xlink:href="#HelveticaNeueBold-101"/>
      </g>
     </g>
    </g>
   </g>
   <g id="matplotlib.axis_2">
    <g id="ytick_1">
     <g id="text_4">
      <!-- horse -->
      <defs>
       <path d="M 5.40625 0 
L 5.40625 71.40625 
L 19.59375 71.40625 
L 19.59375 44.5 
L 19.90625 44.5 
Q 22.5 48.703125 26.796875 51 
Q 30.796875 53.09375 35 53.09375 
Q 45.703125 53.09375 50.09375 47.296875 
Q 53.90625 42.296875 53.90625 31.796875 
L 53.90625 0 
L 39.703125 0 
L 39.703125 29.203125 
Q 39.703125 41.90625 30.59375 41.90625 
Q 24.796875 41.90625 22.1875 38.40625 
Q 19.59375 34.90625 19.59375 27.09375 
L 19.59375 0 
z
" id="HelveticaNeueBold-104"/>
       <path d="M 2.90625 16.796875 
L 16.40625 16.796875 
Q 16.5 12.40625 19.796875 10.09375 
Q 22.703125 8.09375 27.296875 8.09375 
Q 31 8.09375 33.5 9.5 
Q 36.59375 11.296875 36.59375 14.703125 
Q 36.59375 17.703125 32.40625 19.5 
Q 29.40625 20.796875 20.5 22.703125 
Q 12.90625 24.296875 9.203125 26.90625 
Q 4.09375 30.296875 4.09375 36.5 
Q 4.09375 53.09375 26.59375 53.09375 
Q 48 53.09375 49.40625 36.59375 
L 35.90625 36.59375 
Q 35.40625 43.59375 26.203125 43.59375 
Q 18.296875 43.59375 18.296875 38.796875 
Q 18.296875 35.5 23.296875 33.703125 
Q 23.90625 33.5 34.40625 31.09375 
Q 42.09375 29.296875 45.703125 26.703125 
Q 50.796875 23.09375 50.796875 16.59375 
Q 50.796875 7.203125 43.40625 2.5 
Q 37.296875 -1.40625 27.203125 -1.40625 
Q 17.09375 -1.40625 10.796875 2.59375 
Q 3.296875 7.296875 2.90625 16.796875 
z
" id="HelveticaNeueBold-115"/>
      </defs>
      <g transform="translate(34.175275 195.729312)scale(0.11 -0.11)">
       <use xlink:href="#HelveticaNeueBold-104"/>
       <use x="59.299988" xlink:href="#HelveticaNeueBold-111"/>
       <use x="120.399979" xlink:href="#HelveticaNeueBold-114"/>
       <use x="159.299973" xlink:href="#HelveticaNeueBold-115"/>
       <use x="212.999969" xlink:href="#HelveticaNeueBold-101"/>
      </g>
     </g>
    </g>
    <g id="ytick_2">
     <g id="text_5">
      <!-- pig -->
      <defs>
       <path d="M 5.40625 -18.203125 
L 5.40625 51.703125 
L 18.90625 51.703125 
L 18.90625 45.09375 
L 19.09375 45.09375 
Q 24 53.09375 34.5 53.09375 
Q 46 53.09375 52.296875 44.703125 
Q 58 37.203125 58 25.296875 
Q 58 14.203125 52.296875 6.796875 
Q 46.09375 -1.40625 35.296875 -1.40625 
Q 25 -1.40625 19.796875 6.40625 
L 19.59375 6.40625 
L 19.59375 -18.203125 
z
M 31.5 9.296875 
Q 43.796875 9.296875 43.796875 25.703125 
Q 43.796875 32.703125 41 37.09375 
Q 37.703125 42.40625 31.40625 42.40625 
Q 24.90625 42.40625 21.796875 37.203125 
Q 19.09375 32.796875 19.09375 25.703125 
Q 19.09375 18.703125 21.90625 14.40625 
Q 25.09375 9.296875 31.5 9.296875 
z
" id="HelveticaNeueBold-112"/>
       <path d="M 5.796875 0 
L 5.796875 51.703125 
L 20 51.703125 
L 20 0 
z
M 20 71.40625 
L 20 59.703125 
L 5.796875 59.703125 
L 5.796875 71.40625 
z
" id="HelveticaNeueBold-105"/>
       <path d="M 55.09375 51.703125 
L 55.09375 3.296875 
Q 55.09375 -19.59375 28.296875 -19.59375 
Q 19.59375 -19.59375 13.296875 -15.703125 
Q 6 -11.203125 5.5 -3 
L 19.59375 -3 
Q 21.296875 -10.09375 30.203125 -10.09375 
Q 41.59375 -10.09375 41.59375 2.703125 
L 41.59375 9.5 
L 41.40625 9.5 
Q 36.796875 1.5 25.90625 1.5 
Q 14.90625 1.5 9 9.203125 
Q 3.796875 16.09375 3.796875 27.5 
Q 3.796875 38.203125 9.5 45.296875 
Q 15.59375 53.09375 26 53.09375 
Q 36.703125 53.09375 41.40625 44.796875 
L 41.59375 44.796875 
L 41.59375 51.703125 
z
M 29.5 12.203125 
Q 35.296875 12.203125 38.59375 16.59375 
Q 41.59375 20.5 41.59375 26.5 
Q 41.59375 42.40625 29.5 42.40625 
Q 23.796875 42.40625 20.796875 37.90625 
Q 18 34 18 27.703125 
Q 18 21.296875 20.5 17.203125 
Q 23.5 12.203125 29.5 12.203125 
z
" id="HelveticaNeueBold-103"/>
      </defs>
      <g transform="translate(47.641681 110.971422)scale(0.11 -0.11)">
       <use xlink:href="#HelveticaNeueBold-112"/>
       <use x="61.099991" xlink:href="#HelveticaNeueBold-105"/>
       <use x="86.899979" xlink:href="#HelveticaNeueBold-103"/>
      </g>
     </g>
    </g>
    <g id="ytick_3">
     <g id="text_6">
      <!-- monkey -->
      <defs>
       <path d="M 5.796875 0 
L 5.796875 51.703125 
L 19.203125 51.703125 
L 19.203125 44.703125 
L 19.40625 44.703125 
Q 25.296875 53.09375 35.203125 53.09375 
Q 46.40625 53.09375 50.296875 44.5 
Q 56 53.09375 65.90625 53.09375 
Q 84.796875 53.09375 84.796875 34.59375 
L 84.796875 0 
L 70.59375 0 
L 70.59375 29.296875 
Q 70.59375 35.59375 69.296875 38.203125 
Q 67.40625 41.90625 61.90625 41.90625 
Q 52.40625 41.90625 52.40625 28.796875 
L 52.40625 0 
L 38.203125 0 
L 38.203125 29 
Q 38.203125 35.5 37.296875 37.703125 
Q 35.5 41.90625 29.59375 41.90625 
Q 26.296875 41.90625 23.796875 39.703125 
Q 20 36.59375 20 30 
L 20 0 
z
" id="HelveticaNeueBold-109"/>
       <path d="M 5.40625 0 
L 5.40625 51.703125 
L 18.90625 51.703125 
L 18.90625 44.5 
L 19.203125 44.5 
Q 24.5 53.09375 35 53.09375 
Q 45.703125 53.09375 50.09375 47.296875 
Q 53.90625 42.296875 53.90625 31.796875 
L 53.90625 0 
L 39.703125 0 
L 39.703125 29.203125 
Q 39.703125 41.90625 30.59375 41.90625 
Q 24.796875 41.90625 22.1875 38.40625 
Q 19.59375 34.90625 19.59375 27.09375 
L 19.59375 0 
z
" id="HelveticaNeueBold-110"/>
       <path d="M 6.703125 0 
L 6.703125 71.40625 
L 20.90625 71.40625 
L 20.90625 33.09375 
L 38.796875 51.703125 
L 55.59375 51.703125 
L 36.09375 32.703125 
L 57.796875 0 
L 40.59375 0 
L 26.40625 23.09375 
L 20.90625 17.796875 
L 20.90625 0 
z
" id="HelveticaNeueBold-107"/>
      </defs>
      <g transform="translate(22.372619 26.213532)scale(0.11 -0.11)">
       <use xlink:href="#HelveticaNeueBold-109"/>
       <use x="90.599991" xlink:href="#HelveticaNeueBold-111"/>
       <use x="151.699982" xlink:href="#HelveticaNeueBold-110"/>
       <use x="210.999969" xlink:href="#HelveticaNeueBold-107"/>
       <use x="268.399963" xlink:href="#HelveticaNeueBold-101"/>
       <use x="325.799957" xlink:href="#HelveticaNeueBold-121"/>
      </g>
     </g>
    </g>
   </g>
   <g id="line2d_1">
    <defs>
     <path d="M -10 0 
L 10 0 
M 0 10 
L 0 -10 
" id="m13f780e94a" style="stroke:#348abd;"/>
    </defs>
    <g clip-path="url(#p4d673af5af)">
     <use style="fill:#348abd;stroke:#348abd;" x="143.514121" xlink:href="#m13f780e94a" y="137.651094"/>
    </g>
   </g>
   <g id="line2d_2">
    <defs>
     <path d="M -10 0 
L 10 0 
M 0 10 
L 0 -10 
" id="mea53a7aeff" style="stroke:#a60628;"/>
    </defs>
    <g clip-path="url(#p4d673af5af)">
     <use style="fill:#a60628;stroke:#a60628;" x="239.61587" xlink:href="#mea53a7aeff" y="41.549345"/>
    </g>
   </g>
   <g id="line2d_3">
    <path clip-path="url(#p4d673af5af)" d="M 89.363246 191.801969 
L 258.879027 191.801969 
" style="fill:none;stroke:#000000;stroke-dasharray:1.85,0.8;stroke-dashoffset:0;stroke-opacity:0.3;stroke-width:0.5;"/>
   </g>
   <g id="line2d_4">
    <path clip-path="url(#p4d673af5af)" d="M 89.363246 107.044078 
L 258.879027 107.044078 
" style="fill:none;stroke:#000000;stroke-dasharray:1.85,0.8;stroke-dashoffset:0;stroke-opacity:0.3;stroke-width:0.5;"/>
   </g>
   <g id="line2d_5">
    <path clip-path="url(#p4d673af5af)" d="M 89.363246 22.286188 
L 258.879027 22.286188 
" style="fill:none;stroke:#000000;stroke-dasharray:1.85,0.8;stroke-dashoffset:0;stroke-opacity:0.3;stroke-width:0.5;"/>
   </g>
   <g id="line2d_6">
    <path clip-path="url(#p4d673af5af)" d="M 89.363246 191.801969 
L 89.363246 22.286188 
" style="fill:none;stroke:#000000;stroke-dasharray:1.85,0.8;stroke-dashoffset:0;stroke-opacity:0.3;stroke-width:0.5;"/>
   </g>
   <g id="line2d_7">
    <path clip-path="url(#p4d673af5af)" d="M 174.121137 191.801969 
L 174.121137 22.286188 
" style="fill:none;stroke:#000000;stroke-dasharray:1.85,0.8;stroke-dashoffset:0;stroke-opacity:0.3;stroke-width:0.5;"/>
   </g>
   <g id="line2d_8">
    <path clip-path="url(#p4d673af5af)" d="M 258.879027 191.801969 
L 258.879027 22.286188 
" style="fill:none;stroke:#000000;stroke-dasharray:1.85,0.8;stroke-dashoffset:0;stroke-opacity:0.3;stroke-width:0.5;"/>
   </g>
  </g>
 </g>
 <defs>
  <clipPath id="p4d673af5af">
   <rect height="207.542489" width="203.760075" x="70.919963" y="3.00024"/>
  </clipPath>
 </defs>
</svg>
